<?xml version="1.0" encoding="UTF-8" standalone="no"?>
<!DOCTYPE svg PUBLIC "-//W3C//DTD SVG 1.1//EN"
 "http://www.w3.org/Graphics/SVG/1.1/DTD/svg11.dtd">
<!-- Generated by graphviz version 2.43.0 (0)
 -->
<!-- Title: AVL Pages: 1 -->
<svg width="3462pt" height="2160pt"
 viewBox="0.00 0.00 3462.34 2159.84" xmlns="http://www.w3.org/2000/svg" xmlns:xlink="http://www.w3.org/1999/xlink">
<g id="graph0" class="graph" transform="scale(1 1) rotate(0) translate(4 2155.84)">
<title>AVL</title>
<polygon fill="white" stroke="transparent" points="-4,4 -4,-2155.84 3458.34,-2155.84 3458.34,4 -4,4"/>
<!-- Frankenstein -->
<g id="node1" class="node">
<title>Frankenstein</title>
<ellipse fill="lightblue" stroke="black" cx="1405.34" cy="-2095.94" rx="55.79" ry="55.79"/>
<text text-anchor="middle" x="1405.34" y="-2092.24" font-family="Times,serif" font-size="14.00">Frankenstein</text>
</g>
<!-- El Principito -->
<g id="node2" class="node">
<title>El Principito</title>
<ellipse fill="lightblue" stroke="black" cx="966.34" cy="-1902.6" rx="55.79" ry="55.79"/>
<text text-anchor="middle" x="966.34" y="-1898.9" font-family="Times,serif" font-size="14.00">El Principito</text>
</g>
<!-- Frankenstein&#45;&gt;El Principito -->
<g id="edge1" class="edge">
<title>Frankenstein&#45;&gt;El Principito</title>
<path fill="none" stroke="black" d="M1354.13,-2072.62C1272.51,-2037.05 1113.32,-1967.66 1026.44,-1929.8"/>
<polygon fill="black" stroke="black" points="1027.8,-1926.57 1017.24,-1925.78 1025,-1932.99 1027.8,-1926.57"/>
<text text-anchor="middle" x="1242.84" y="-2010.85" font-family="Times,serif" font-size="14.00">L</text>
</g>
<!-- La sombra del viento -->
<g id="node29" class="node">
<title>La sombra del viento</title>
<ellipse fill="lightblue" stroke="black" cx="1842.34" cy="-1902.6" rx="86.38" ry="86.38"/>
<text text-anchor="middle" x="1842.34" y="-1898.9" font-family="Times,serif" font-size="14.00">La sombra del viento</text>
</g>
<!-- Frankenstein&#45;&gt;La sombra del viento -->
<g id="edge28" class="edge">
<title>Frankenstein&#45;&gt;La sombra del viento</title>
<path fill="none" stroke="black" d="M1456.33,-2072.62C1529.28,-2040.67 1664.51,-1981.47 1753.96,-1942.3"/>
<polygon fill="black" stroke="black" points="1755.53,-1945.44 1763.28,-1938.22 1752.72,-1939.02 1755.53,-1945.44"/>
<text text-anchor="middle" x="1603.34" y="-2010.85" font-family="Times,serif" font-size="14.00">R</text>
</g>
<!-- Don Quijote de la Mancha -->
<g id="node3" class="node">
<title>Don Quijote de la Mancha</title>
<ellipse fill="lightblue" stroke="black" cx="534.34" cy="-1659.87" rx="105.08" ry="105.08"/>
<text text-anchor="middle" x="534.34" y="-1656.17" font-family="Times,serif" font-size="14.00">Don Quijote de la Mancha</text>
</g>
<!-- El Principito&#45;&gt;Don Quijote de la Mancha -->
<g id="edge2" class="edge">
<title>El Principito&#45;&gt;Don Quijote de la Mancha</title>
<path fill="none" stroke="black" d="M917.63,-1874.46C849.4,-1836.44 723.79,-1766.44 634.99,-1716.96"/>
<polygon fill="black" stroke="black" points="636.69,-1713.89 626.25,-1712.08 633.28,-1720.01 636.69,-1713.89"/>
<text text-anchor="middle" x="780.84" y="-1786.96" font-family="Times,serif" font-size="14.00">L</text>
</g>
<!-- El retrato de Dorian Gray -->
<g id="node14" class="node">
<title>El retrato de Dorian Gray</title>
<ellipse fill="lightblue" stroke="black" cx="966.34" cy="-1659.87" rx="101.28" ry="101.28"/>
<text text-anchor="middle" x="966.34" y="-1656.17" font-family="Times,serif" font-size="14.00">El retrato de Dorian Gray</text>
</g>
<!-- El Principito&#45;&gt;El retrato de Dorian Gray -->
<g id="edge13" class="edge">
<title>El Principito&#45;&gt;El retrato de Dorian Gray</title>
<path fill="none" stroke="black" d="M966.34,-1846.68C966.34,-1824.38 966.34,-1797.78 966.34,-1771.77"/>
<polygon fill="black" stroke="black" points="969.84,-1771.46 966.34,-1761.46 962.84,-1771.46 969.84,-1771.46"/>
<text text-anchor="middle" x="971.34" y="-1786.96" font-family="Times,serif" font-size="14.00">R</text>
</g>
<!-- Cien años de soledad -->
<g id="node4" class="node">
<title>Cien años de soledad</title>
<ellipse fill="lightblue" stroke="black" cx="270.34" cy="-1322.9" rx="85.59" ry="85.59"/>
<text text-anchor="middle" x="270.34" y="-1319.2" font-family="Times,serif" font-size="14.00">Cien años de soledad</text>
</g>
<!-- Don Quijote de la Mancha&#45;&gt;Cien años de soledad -->
<g id="edge3" class="edge">
<title>Don Quijote de la Mancha&#45;&gt;Cien años de soledad</title>
<path fill="none" stroke="black" d="M469.42,-1576.5C426.59,-1522.14 370.91,-1451.5 329.33,-1398.74"/>
<polygon fill="black" stroke="black" points="331.98,-1396.45 323.04,-1390.76 326.48,-1400.78 331.98,-1396.45"/>
<text text-anchor="middle" x="438.84" y="-1525.38" font-family="Times,serif" font-size="14.00">L</text>
</g>
<!-- El Código Da Vinci -->
<g id="node10" class="node">
<title>El Código Da Vinci</title>
<ellipse fill="lightblue" stroke="black" cx="534.34" cy="-1322.9" rx="81.49" ry="81.49"/>
<text text-anchor="middle" x="534.34" y="-1319.2" font-family="Times,serif" font-size="14.00">El Código Da Vinci</text>
</g>
<!-- Don Quijote de la Mancha&#45;&gt;El Código Da Vinci -->
<g id="edge9" class="edge">
<title>Don Quijote de la Mancha&#45;&gt;El Código Da Vinci</title>
<path fill="none" stroke="black" d="M534.34,-1554.26C534.34,-1509.48 534.34,-1457.68 534.34,-1414.55"/>
<polygon fill="black" stroke="black" points="537.84,-1414.35 534.34,-1404.35 530.84,-1414.35 537.84,-1414.35"/>
<text text-anchor="middle" x="539.34" y="-1525.38" font-family="Times,serif" font-size="14.00">R</text>
</g>
<!-- 1984 -->
<g id="node5" class="node">
<title>1984</title>
<ellipse fill="lightblue" stroke="black" cx="74.34" cy="-870.88" rx="28.7" ry="28.7"/>
<text text-anchor="middle" x="74.34" y="-867.18" font-family="Times,serif" font-size="14.00">1984</text>
</g>
<!-- Cien años de soledad&#45;&gt;1984 -->
<g id="edge4" class="edge">
<title>Cien años de soledad&#45;&gt;1984</title>
<path fill="none" stroke="black" d="M221.28,-1252.5C191.76,-1208.11 155.37,-1148.32 131.34,-1091.21 105.56,-1029.94 88.99,-954.01 80.69,-909.46"/>
<polygon fill="black" stroke="black" points="84.09,-908.58 78.86,-899.37 77.2,-909.84 84.09,-908.58"/>
<text text-anchor="middle" x="147.84" y="-1113.01" font-family="Times,serif" font-size="14.00">L</text>
</g>
<!-- Crónica de una muerte anunciada -->
<g id="node7" class="node">
<title>Crónica de una muerte anunciada</title>
<ellipse fill="lightblue" stroke="black" cx="270.34" cy="-870.88" rx="129.98" ry="129.98"/>
<text text-anchor="middle" x="270.34" y="-867.18" font-family="Times,serif" font-size="14.00">Crónica de una muerte anunciada</text>
</g>
<!-- Cien años de soledad&#45;&gt;Crónica de una muerte anunciada -->
<g id="edge6" class="edge">
<title>Cien años de soledad&#45;&gt;Crónica de una muerte anunciada</title>
<path fill="none" stroke="black" d="M270.34,-1236.99C270.34,-1173.49 270.34,-1085.28 270.34,-1011.47"/>
<polygon fill="black" stroke="black" points="273.84,-1011.16 270.34,-1001.16 266.84,-1011.16 273.84,-1011.16"/>
<text text-anchor="middle" x="275.34" y="-1113.01" font-family="Times,serif" font-size="14.00">R</text>
</g>
<!-- Anna Karenina -->
<g id="node6" class="node">
<title>Anna Karenina</title>
<ellipse fill="lightblue" stroke="black" cx="64.34" cy="-436.42" rx="64.19" ry="64.19"/>
<text text-anchor="middle" x="64.34" y="-432.72" font-family="Times,serif" font-size="14.00">Anna Karenina</text>
</g>
<!-- 1984&#45;&gt;Anna Karenina -->
<g id="edge5" class="edge">
<title>1984&#45;&gt;Anna Karenina</title>
<path fill="none" stroke="black" d="M73.7,-842.17C72.18,-776.36 68.31,-608.89 66.05,-511.23"/>
<polygon fill="black" stroke="black" points="69.55,-511.05 65.82,-501.13 62.55,-511.21 69.55,-511.05"/>
<text text-anchor="middle" x="74.34" y="-621.35" font-family="Times,serif" font-size="14.00">R</text>
</g>
<!-- Coraline -->
<g id="node8" class="node">
<title>Coraline</title>
<ellipse fill="lightblue" stroke="black" cx="187.34" cy="-436.42" rx="40.89" ry="40.89"/>
<text text-anchor="middle" x="187.34" y="-432.72" font-family="Times,serif" font-size="14.00">Coraline</text>
</g>
<!-- Crónica de una muerte anunciada&#45;&gt;Coraline -->
<g id="edge7" class="edge">
<title>Crónica de una muerte anunciada&#45;&gt;Coraline</title>
<path fill="none" stroke="black" d="M246,-743.05C229.55,-657.35 208.74,-548.91 196.85,-486.92"/>
<polygon fill="black" stroke="black" points="200.27,-486.18 194.94,-477.02 193.39,-487.5 200.27,-486.18"/>
<text text-anchor="middle" x="228.84" y="-621.35" font-family="Times,serif" font-size="14.00">L</text>
</g>
<!-- Cumbres borrascosas -->
<g id="node9" class="node">
<title>Cumbres borrascosas</title>
<ellipse fill="lightblue" stroke="black" cx="332.34" cy="-436.42" rx="86.38" ry="86.38"/>
<text text-anchor="middle" x="332.34" y="-432.72" font-family="Times,serif" font-size="14.00">Cumbres borrascosas</text>
</g>
<!-- Crónica de una muerte anunciada&#45;&gt;Cumbres borrascosas -->
<g id="edge8" class="edge">
<title>Crónica de una muerte anunciada&#45;&gt;Cumbres borrascosas</title>
<path fill="none" stroke="black" d="M288.65,-742.17C298.29,-674.92 309.92,-593.86 318.75,-532.25"/>
<polygon fill="black" stroke="black" points="322.24,-532.54 320.2,-522.15 315.31,-531.55 322.24,-532.54"/>
<text text-anchor="middle" x="310.34" y="-621.35" font-family="Times,serif" font-size="14.00">R</text>
</g>
<!-- Drácula -->
<g id="node11" class="node">
<title>Drácula</title>
<ellipse fill="lightblue" stroke="black" cx="466.34" cy="-870.88" rx="38.19" ry="38.19"/>
<text text-anchor="middle" x="466.34" y="-867.18" font-family="Times,serif" font-size="14.00">Drácula</text>
</g>
<!-- El Código Da Vinci&#45;&gt;Drácula -->
<g id="edge10" class="edge">
<title>El Código Da Vinci&#45;&gt;Drácula</title>
<path fill="none" stroke="black" d="M522.34,-1242.48C508.2,-1148.85 485.14,-996.29 473.52,-919.39"/>
<polygon fill="black" stroke="black" points="476.92,-918.42 471.96,-909.06 470,-919.47 476.92,-918.42"/>
<text text-anchor="middle" x="509.84" y="-1113.01" font-family="Times,serif" font-size="14.00">L</text>
</g>
<!-- El Hobbit -->
<g id="node13" class="node">
<title>El Hobbit</title>
<ellipse fill="lightblue" stroke="black" cx="568.34" cy="-870.88" rx="45.49" ry="45.49"/>
<text text-anchor="middle" x="568.34" y="-867.18" font-family="Times,serif" font-size="14.00">El Hobbit</text>
</g>
<!-- El Código Da Vinci&#45;&gt;El Hobbit -->
<g id="edge12" class="edge">
<title>El Código Da Vinci&#45;&gt;El Hobbit</title>
<path fill="none" stroke="black" d="M540.4,-1241.7C547.26,-1150.89 558.26,-1005.37 564.2,-926.67"/>
<polygon fill="black" stroke="black" points="567.71,-926.73 564.97,-916.49 560.73,-926.2 567.71,-926.73"/>
<text text-anchor="middle" x="555.34" y="-1113.01" font-family="Times,serif" font-size="14.00">R</text>
</g>
<!-- Dune -->
<g id="node12" class="node">
<title>Dune</title>
<ellipse fill="lightblue" stroke="black" cx="466.34" cy="-436.42" rx="29.8" ry="29.8"/>
<text text-anchor="middle" x="466.34" y="-432.72" font-family="Times,serif" font-size="14.00">Dune</text>
</g>
<!-- Drácula&#45;&gt;Dune -->
<g id="edge11" class="edge">
<title>Drácula&#45;&gt;Dune</title>
<path fill="none" stroke="black" d="M466.34,-832.26C466.34,-750.95 466.34,-559.52 466.34,-476.72"/>
<polygon fill="black" stroke="black" points="469.84,-476.47 466.34,-466.47 462.84,-476.47 469.84,-476.47"/>
<text text-anchor="middle" x="471.34" y="-621.35" font-family="Times,serif" font-size="14.00">R</text>
</g>
<!-- El diario de Ana Frank -->
<g id="node15" class="node">
<title>El diario de Ana Frank</title>
<ellipse fill="lightblue" stroke="black" cx="893.34" cy="-1322.9" rx="91.78" ry="91.78"/>
<text text-anchor="middle" x="893.34" y="-1319.2" font-family="Times,serif" font-size="14.00">El diario de Ana Frank</text>
</g>
<!-- El retrato de Dorian Gray&#45;&gt;El diario de Ana Frank -->
<g id="edge14" class="edge">
<title>El retrato de Dorian Gray&#45;&gt;El diario de Ana Frank</title>
<path fill="none" stroke="black" d="M944.94,-1560.63C935.47,-1517.2 924.36,-1466.23 914.88,-1422.73"/>
<polygon fill="black" stroke="black" points="918.25,-1421.73 912.7,-1412.71 911.41,-1423.22 918.25,-1421.73"/>
<text text-anchor="middle" x="943.84" y="-1525.38" font-family="Times,serif" font-size="14.00">L</text>
</g>
<!-- El señor de los anillos: La comunidad del anillo -->
<g id="node24" class="node">
<title>El señor de los anillos: La comunidad del anillo</title>
<ellipse fill="lightblue" stroke="black" cx="1183.34" cy="-1322.9" rx="180.87" ry="180.87"/>
<text text-anchor="middle" x="1183.34" y="-1319.2" font-family="Times,serif" font-size="14.00">El señor de los anillos: La comunidad del anillo</text>
</g>
<!-- El retrato de Dorian Gray&#45;&gt;El señor de los anillos: La comunidad del anillo -->
<g id="edge23" class="edge">
<title>El retrato de Dorian Gray&#45;&gt;El señor de los anillos: La comunidad del anillo</title>
<path fill="none" stroke="black" d="M1021.1,-1574.34C1039.08,-1546.59 1059.7,-1514.77 1080.06,-1483.32"/>
<polygon fill="black" stroke="black" points="1083.02,-1485.2 1085.52,-1474.91 1077.14,-1481.4 1083.02,-1485.2"/>
<text text-anchor="middle" x="1054.34" y="-1525.38" font-family="Times,serif" font-size="14.00">R</text>
</g>
<!-- El atlas de las nubes -->
<g id="node16" class="node">
<title>El atlas de las nubes</title>
<ellipse fill="lightblue" stroke="black" cx="719.34" cy="-870.88" rx="83.39" ry="83.39"/>
<text text-anchor="middle" x="719.34" y="-867.18" font-family="Times,serif" font-size="14.00">El atlas de las nubes</text>
</g>
<!-- El diario de Ana Frank&#45;&gt;El atlas de las nubes -->
<g id="edge15" class="edge">
<title>El diario de Ana Frank&#45;&gt;El atlas de las nubes</title>
<path fill="none" stroke="black" d="M860.62,-1237.25C829.78,-1157.49 783.79,-1038.56 752.74,-958.24"/>
<polygon fill="black" stroke="black" points="755.9,-956.71 749.02,-948.64 749.37,-959.23 755.9,-956.71"/>
<text text-anchor="middle" x="821.84" y="-1113.01" font-family="Times,serif" font-size="14.00">L</text>
</g>
<!-- El nombre de la rosa -->
<g id="node19" class="node">
<title>El nombre de la rosa</title>
<ellipse fill="lightblue" stroke="black" cx="905.34" cy="-870.88" rx="85.29" ry="85.29"/>
<text text-anchor="middle" x="905.34" y="-867.18" font-family="Times,serif" font-size="14.00">El nombre de la rosa</text>
</g>
<!-- El diario de Ana Frank&#45;&gt;El nombre de la rosa -->
<g id="edge18" class="edge">
<title>El diario de Ana Frank&#45;&gt;El nombre de la rosa</title>
<path fill="none" stroke="black" d="M895.77,-1231.1C897.82,-1154.19 900.75,-1044.32 902.82,-966.38"/>
<polygon fill="black" stroke="black" points="906.33,-966.17 903.1,-956.08 899.33,-965.98 906.33,-966.17"/>
<text text-anchor="middle" x="904.34" y="-1113.01" font-family="Times,serif" font-size="14.00">R</text>
</g>
<!-- El alquimista -->
<g id="node17" class="node">
<title>El alquimista</title>
<ellipse fill="lightblue" stroke="black" cx="572.34" cy="-436.42" rx="57.69" ry="57.69"/>
<text text-anchor="middle" x="572.34" y="-432.72" font-family="Times,serif" font-size="14.00">El alquimista</text>
</g>
<!-- El atlas de las nubes&#45;&gt;El alquimista -->
<g id="edge16" class="edge">
<title>El atlas de las nubes&#45;&gt;El alquimista</title>
<path fill="none" stroke="black" d="M692.81,-791.82C664.5,-708.52 620.19,-578.16 593.93,-500.92"/>
<polygon fill="black" stroke="black" points="597.2,-499.65 590.66,-491.31 590.57,-501.9 597.2,-499.65"/>
<text text-anchor="middle" x="641.84" y="-621.35" font-family="Times,serif" font-size="14.00">L</text>
</g>
<!-- El código Enigma -->
<g id="node18" class="node">
<title>El código Enigma</title>
<ellipse fill="lightblue" stroke="black" cx="723.34" cy="-436.42" rx="75.29" ry="75.29"/>
<text text-anchor="middle" x="723.34" y="-432.72" font-family="Times,serif" font-size="14.00">El código Enigma</text>
</g>
<!-- El atlas de las nubes&#45;&gt;El código Enigma -->
<g id="edge17" class="edge">
<title>El atlas de las nubes&#45;&gt;El código Enigma</title>
<path fill="none" stroke="black" d="M720.11,-787.52C720.81,-711.41 721.85,-598.82 722.56,-522.01"/>
<polygon fill="black" stroke="black" points="726.06,-521.92 722.66,-511.89 719.06,-521.86 726.06,-521.92"/>
<text text-anchor="middle" x="727.34" y="-621.35" font-family="Times,serif" font-size="14.00">R</text>
</g>
<!-- El gran Gatsby -->
<g id="node20" class="node">
<title>El gran Gatsby</title>
<ellipse fill="lightblue" stroke="black" cx="880.34" cy="-436.42" rx="63.89" ry="63.89"/>
<text text-anchor="middle" x="880.34" y="-432.72" font-family="Times,serif" font-size="14.00">El gran Gatsby</text>
</g>
<!-- El nombre de la rosa&#45;&gt;El gran Gatsby -->
<g id="edge19" class="edge">
<title>El nombre de la rosa&#45;&gt;El gran Gatsby</title>
<path fill="none" stroke="black" d="M900.48,-785.73C895.85,-705.66 888.96,-586.41 884.56,-510.3"/>
<polygon fill="black" stroke="black" points="888.05,-510.09 883.98,-500.31 881.06,-510.5 888.05,-510.09"/>
<text text-anchor="middle" x="896.84" y="-621.35" font-family="Times,serif" font-size="14.00">L</text>
</g>
<!-- El perfume -->
<g id="node22" class="node">
<title>El perfume</title>
<ellipse fill="lightblue" stroke="black" cx="1012.34" cy="-436.42" rx="50.89" ry="50.89"/>
<text text-anchor="middle" x="1012.34" y="-432.72" font-family="Times,serif" font-size="14.00">El perfume</text>
</g>
<!-- El nombre de la rosa&#45;&gt;El perfume -->
<g id="edge21" class="edge">
<title>El nombre de la rosa&#45;&gt;El perfume</title>
<path fill="none" stroke="black" d="M925.6,-788.03C946.73,-702.61 979.34,-570.83 997.97,-495.52"/>
<polygon fill="black" stroke="black" points="1001.39,-496.27 1000.39,-485.72 994.59,-494.59 1001.39,-496.27"/>
<text text-anchor="middle" x="970.34" y="-621.35" font-family="Times,serif" font-size="14.00">R</text>
</g>
<!-- El juego de Ender -->
<g id="node21" class="node">
<title>El juego de Ender</title>
<ellipse fill="lightblue" stroke="black" cx="844.34" cy="-111.14" rx="74.99" ry="74.99"/>
<text text-anchor="middle" x="844.34" y="-107.44" font-family="Times,serif" font-size="14.00">El juego de Ender</text>
</g>
<!-- El gran Gatsby&#45;&gt;El juego de Ender -->
<g id="edge20" class="edge">
<title>El gran Gatsby&#45;&gt;El juego de Ender</title>
<path fill="none" stroke="black" d="M873.4,-373.09C867.79,-322.65 859.82,-251.15 853.65,-195.75"/>
<polygon fill="black" stroke="black" points="857.11,-195.15 852.52,-185.6 850.15,-195.92 857.11,-195.15"/>
<text text-anchor="middle" x="865.34" y="-244.08" font-family="Times,serif" font-size="14.00">R</text>
</g>
<!-- El principito y otros cuentos -->
<g id="node23" class="node">
<title>El principito y otros cuentos</title>
<ellipse fill="lightblue" stroke="black" cx="1048.34" cy="-111.14" rx="111.28" ry="111.28"/>
<text text-anchor="middle" x="1048.34" y="-107.44" font-family="Times,serif" font-size="14.00">El principito y otros cuentos</text>
</g>
<!-- El perfume&#45;&gt;El principito y otros cuentos -->
<g id="edge22" class="edge">
<title>El perfume&#45;&gt;El principito y otros cuentos</title>
<path fill="none" stroke="black" d="M1017.85,-385.97C1022.4,-345.09 1029.06,-285.32 1034.99,-232.05"/>
<polygon fill="black" stroke="black" points="1038.5,-232.16 1036.13,-221.84 1031.54,-231.39 1038.5,-232.16"/>
<text text-anchor="middle" x="1039.34" y="-244.08" font-family="Times,serif" font-size="14.00">R</text>
</g>
<!-- El señor de los anillos: El retorno del rey -->
<g id="node25" class="node">
<title>El señor de los anillos: El retorno del rey</title>
<ellipse fill="lightblue" stroke="black" cx="1171.34" cy="-870.88" rx="156.77" ry="156.77"/>
<text text-anchor="middle" x="1171.34" y="-867.18" font-family="Times,serif" font-size="14.00">El señor de los anillos: El retorno del rey</text>
</g>
<!-- El señor de los anillos: La comunidad del anillo&#45;&gt;El señor de los anillos: El retorno del rey -->
<g id="edge24" class="edge">
<title>El señor de los anillos: La comunidad del anillo&#45;&gt;El señor de los anillos: El retorno del rey</title>
<path fill="none" stroke="black" d="M1178.55,-1142.1C1177.63,-1107.67 1176.67,-1071.77 1175.77,-1037.81"/>
<polygon fill="black" stroke="black" points="1179.27,-1037.71 1175.5,-1027.81 1172.27,-1037.9 1179.27,-1037.71"/>
<text text-anchor="middle" x="1182.84" y="-1113.01" font-family="Times,serif" font-size="14.00">L</text>
</g>
<!-- En llamas -->
<g id="node26" class="node">
<title>En llamas</title>
<ellipse fill="lightblue" stroke="black" cx="1392.34" cy="-870.88" rx="46.29" ry="46.29"/>
<text text-anchor="middle" x="1392.34" y="-867.18" font-family="Times,serif" font-size="14.00">En llamas</text>
</g>
<!-- El señor de los anillos: La comunidad del anillo&#45;&gt;En llamas -->
<g id="edge25" class="edge">
<title>El señor de los anillos: La comunidad del anillo&#45;&gt;En llamas</title>
<path fill="none" stroke="black" d="M1290.63,-1177.32C1307.99,-1149.67 1324.47,-1120.27 1337.34,-1091.21 1361.08,-1037.66 1375.83,-972.02 1384.01,-926.58"/>
<polygon fill="black" stroke="black" points="1387.47,-927.08 1385.75,-916.63 1380.58,-925.87 1387.47,-927.08"/>
<text text-anchor="middle" x="1333.34" y="-1113.01" font-family="Times,serif" font-size="14.00">R</text>
</g>
<!-- El señor de los anillos: Las dos torres -->
<g id="node27" class="node">
<title>El señor de los anillos: Las dos torres</title>
<ellipse fill="lightblue" stroke="black" cx="1224.34" cy="-436.42" rx="143.77" ry="143.77"/>
<text text-anchor="middle" x="1224.34" y="-432.72" font-family="Times,serif" font-size="14.00">El señor de los anillos: Las dos torres</text>
</g>
<!-- En llamas&#45;&gt;El señor de los anillos: Las dos torres -->
<g id="edge26" class="edge">
<title>En llamas&#45;&gt;El señor de los anillos: Las dos torres</title>
<path fill="none" stroke="black" d="M1384.44,-825.22C1375.71,-780.21 1359.86,-709.19 1337.34,-650.55 1327.1,-623.88 1314.3,-596.3 1301.02,-570.17"/>
<polygon fill="black" stroke="black" points="1303.99,-568.29 1296.31,-561 1297.77,-571.49 1303.99,-568.29"/>
<text text-anchor="middle" x="1334.84" y="-621.35" font-family="Times,serif" font-size="14.00">L</text>
</g>
<!-- Fahrenheit 451 -->
<g id="node28" class="node">
<title>Fahrenheit 451</title>
<ellipse fill="lightblue" stroke="black" cx="1449.34" cy="-436.42" rx="63.89" ry="63.89"/>
<text text-anchor="middle" x="1449.34" y="-432.72" font-family="Times,serif" font-size="14.00">Fahrenheit 451</text>
</g>
<!-- En llamas&#45;&gt;Fahrenheit 451 -->
<g id="edge27" class="edge">
<title>En llamas&#45;&gt;Fahrenheit 451</title>
<path fill="none" stroke="black" d="M1398.28,-824.82C1408.14,-750.04 1427.96,-599.65 1439.8,-509.83"/>
<polygon fill="black" stroke="black" points="1443.3,-510.09 1441.13,-499.72 1436.36,-509.18 1443.3,-510.09"/>
<text text-anchor="middle" x="1429.34" y="-621.35" font-family="Times,serif" font-size="14.00">R</text>
</g>
<!-- La Odisea -->
<g id="node30" class="node">
<title>La Odisea</title>
<ellipse fill="lightblue" stroke="black" cx="1842.34" cy="-1659.87" rx="46.59" ry="46.59"/>
<text text-anchor="middle" x="1842.34" y="-1656.17" font-family="Times,serif" font-size="14.00">La Odisea</text>
</g>
<!-- La sombra del viento&#45;&gt;La Odisea -->
<g id="edge29" class="edge">
<title>La sombra del viento&#45;&gt;La Odisea</title>
<path fill="none" stroke="black" d="M1842.34,-1816.05C1842.34,-1783.17 1842.34,-1746.5 1842.34,-1717.06"/>
<polygon fill="black" stroke="black" points="1845.84,-1716.97 1842.34,-1706.97 1838.84,-1716.97 1845.84,-1716.97"/>
<text text-anchor="middle" x="1846.84" y="-1786.96" font-family="Times,serif" font-size="14.00">L</text>
</g>
<!-- Orgullo y prejuicio -->
<g id="node38" class="node">
<title>Orgullo y prejuicio</title>
<ellipse fill="lightblue" stroke="black" cx="2616.34" cy="-1659.87" rx="78.79" ry="78.79"/>
<text text-anchor="middle" x="2616.34" y="-1656.17" font-family="Times,serif" font-size="14.00">Orgullo y prejuicio</text>
</g>
<!-- La sombra del viento&#45;&gt;Orgullo y prejuicio -->
<g id="edge37" class="edge">
<title>La sombra del viento&#45;&gt;Orgullo y prejuicio</title>
<path fill="none" stroke="black" d="M1924.81,-1875.96C2072.89,-1829.9 2382.31,-1733.66 2531.85,-1687.15"/>
<polygon fill="black" stroke="black" points="2532.95,-1690.47 2541.46,-1684.16 2530.87,-1683.79 2532.95,-1690.47"/>
<text text-anchor="middle" x="2211.34" y="-1786.96" font-family="Times,serif" font-size="14.00">R</text>
</g>
<!-- Jane Eyre -->
<g id="node31" class="node">
<title>Jane Eyre</title>
<ellipse fill="lightblue" stroke="black" cx="1771.34" cy="-1322.9" rx="45.49" ry="45.49"/>
<text text-anchor="middle" x="1771.34" y="-1319.2" font-family="Times,serif" font-size="14.00">Jane Eyre</text>
</g>
<!-- La Odisea&#45;&gt;Jane Eyre -->
<g id="edge30" class="edge">
<title>La Odisea&#45;&gt;Jane Eyre</title>
<path fill="none" stroke="black" d="M1832.84,-1614.04C1819.88,-1552.87 1796.67,-1443.37 1782.77,-1377.79"/>
<polygon fill="black" stroke="black" points="1786.12,-1376.72 1780.62,-1367.66 1779.27,-1378.17 1786.12,-1376.72"/>
<text text-anchor="middle" x="1819.84" y="-1525.38" font-family="Times,serif" font-size="14.00">L</text>
</g>
<!-- La historia interminable -->
<g id="node35" class="node">
<title>La historia interminable</title>
<ellipse fill="lightblue" stroke="black" cx="2052.34" cy="-1322.9" rx="96.38" ry="96.38"/>
<text text-anchor="middle" x="2052.34" y="-1319.2" font-family="Times,serif" font-size="14.00">La historia interminable</text>
</g>
<!-- La Odisea&#45;&gt;La historia interminable -->
<g id="edge34" class="edge">
<title>La Odisea&#45;&gt;La historia interminable</title>
<path fill="none" stroke="black" d="M1866.84,-1619.79C1898.39,-1569.48 1954.15,-1480.53 1996.33,-1413.25"/>
<polygon fill="black" stroke="black" points="1999.31,-1415.08 2001.66,-1404.74 1993.38,-1411.36 1999.31,-1415.08"/>
<text text-anchor="middle" x="1928.34" y="-1525.38" font-family="Times,serif" font-size="14.00">R</text>
</g>
<!-- Harry Potter y la piedra filosofal -->
<g id="node32" class="node">
<title>Harry Potter y la piedra filosofal</title>
<ellipse fill="lightblue" stroke="black" cx="1585.34" cy="-870.88" rx="126.18" ry="126.18"/>
<text text-anchor="middle" x="1585.34" y="-867.18" font-family="Times,serif" font-size="14.00">Harry Potter y la piedra filosofal</text>
</g>
<!-- Jane Eyre&#45;&gt;Harry Potter y la piedra filosofal -->
<g id="edge31" class="edge">
<title>Jane Eyre&#45;&gt;Harry Potter y la piedra filosofal</title>
<path fill="none" stroke="black" d="M1754.18,-1280.37C1727.85,-1216.67 1676.43,-1092.27 1637.22,-997.4"/>
<polygon fill="black" stroke="black" points="1640.4,-995.93 1633.35,-988.03 1633.93,-998.61 1640.4,-995.93"/>
<text text-anchor="middle" x="1694.84" y="-1113.01" font-family="Times,serif" font-size="14.00">L</text>
</g>
<!-- La Iliada -->
<g id="node34" class="node">
<title>La Iliada</title>
<ellipse fill="lightblue" stroke="black" cx="1771.34" cy="-870.88" rx="42.49" ry="42.49"/>
<text text-anchor="middle" x="1771.34" y="-867.18" font-family="Times,serif" font-size="14.00">La Iliada</text>
</g>
<!-- Jane Eyre&#45;&gt;La Iliada -->
<g id="edge33" class="edge">
<title>Jane Eyre&#45;&gt;La Iliada</title>
<path fill="none" stroke="black" d="M1771.34,-1277.1C1771.34,-1193.06 1771.34,-1012.21 1771.34,-923.33"/>
<polygon fill="black" stroke="black" points="1774.84,-923.22 1771.34,-913.22 1767.84,-923.22 1774.84,-923.22"/>
<text text-anchor="middle" x="1776.34" y="-1113.01" font-family="Times,serif" font-size="14.00">R</text>
</g>
<!-- Guerra y Paz -->
<g id="node33" class="node">
<title>Guerra y Paz</title>
<ellipse fill="lightblue" stroke="black" cx="1588.34" cy="-436.42" rx="57.39" ry="57.39"/>
<text text-anchor="middle" x="1588.34" y="-432.72" font-family="Times,serif" font-size="14.00">Guerra y Paz</text>
</g>
<!-- Harry Potter y la piedra filosofal&#45;&gt;Guerra y Paz -->
<g id="edge32" class="edge">
<title>Harry Potter y la piedra filosofal&#45;&gt;Guerra y Paz</title>
<path fill="none" stroke="black" d="M1586.21,-744.79C1586.76,-666.22 1587.44,-568 1587.88,-504.04"/>
<polygon fill="black" stroke="black" points="1591.38,-503.71 1587.95,-493.68 1584.38,-503.66 1591.38,-503.71"/>
<text text-anchor="middle" x="1591.84" y="-621.35" font-family="Times,serif" font-size="14.00">L</text>
</g>
<!-- La chica que soñaba con una cerilla y un bidón de gasolina -->
<g id="node36" class="node">
<title>La chica que soñaba con una cerilla y un bidón de gasolina</title>
<ellipse fill="lightblue" stroke="black" cx="2052.34" cy="-870.88" rx="220.16" ry="220.16"/>
<text text-anchor="middle" x="2052.34" y="-867.18" font-family="Times,serif" font-size="14.00">La chica que soñaba con una cerilla y un bidón de gasolina</text>
</g>
<!-- La historia interminable&#45;&gt;La chica que soñaba con una cerilla y un bidón de gasolina -->
<g id="edge35" class="edge">
<title>La historia interminable&#45;&gt;La chica que soñaba con una cerilla y un bidón de gasolina</title>
<path fill="none" stroke="black" d="M2052.34,-1226.46C2052.34,-1189.52 2052.34,-1145.51 2052.34,-1101.28"/>
<polygon fill="black" stroke="black" points="2055.84,-1101.25 2052.34,-1091.25 2048.84,-1101.25 2055.84,-1101.25"/>
<text text-anchor="middle" x="2056.84" y="-1113.01" font-family="Times,serif" font-size="14.00">L</text>
</g>
<!-- La ladrona de libros -->
<g id="node37" class="node">
<title>La ladrona de libros</title>
<ellipse fill="lightblue" stroke="black" cx="2372.34" cy="-870.88" rx="81.79" ry="81.79"/>
<text text-anchor="middle" x="2372.34" y="-867.18" font-family="Times,serif" font-size="14.00">La ladrona de libros</text>
</g>
<!-- La historia interminable&#45;&gt;La ladrona de libros -->
<g id="edge36" class="edge">
<title>La historia interminable&#45;&gt;La ladrona de libros</title>
<path fill="none" stroke="black" d="M2126.21,-1261.12C2175.23,-1217.78 2238.26,-1155.91 2281.34,-1091.21 2308.32,-1050.7 2329.77,-1000.91 2345.05,-959.02"/>
<polygon fill="black" stroke="black" points="2348.43,-959.97 2348.51,-949.38 2341.84,-957.61 2348.43,-959.97"/>
<text text-anchor="middle" x="2271.34" y="-1113.01" font-family="Times,serif" font-size="14.00">R</text>
</g>
<!-- Matar a un ruiseñor -->
<g id="node39" class="node">
<title>Matar a un ruiseñor</title>
<ellipse fill="lightblue" stroke="black" cx="2616.34" cy="-1322.9" rx="81.49" ry="81.49"/>
<text text-anchor="middle" x="2616.34" y="-1319.2" font-family="Times,serif" font-size="14.00">Matar a un ruiseñor</text>
</g>
<!-- Orgullo y prejuicio&#45;&gt;Matar a un ruiseñor -->
<g id="edge38" class="edge">
<title>Orgullo y prejuicio&#45;&gt;Matar a un ruiseñor</title>
<path fill="none" stroke="black" d="M2616.34,-1581.18C2616.34,-1531.44 2616.34,-1466.71 2616.34,-1414.61"/>
<polygon fill="black" stroke="black" points="2619.84,-1414.37 2616.34,-1404.37 2612.84,-1414.37 2619.84,-1414.37"/>
<text text-anchor="middle" x="2620.84" y="-1525.38" font-family="Times,serif" font-size="14.00">L</text>
</g>
<!-- Z -->
<g id="node47" class="node">
<title>Z</title>
<ellipse fill="lightblue" stroke="black" cx="3139.34" cy="-1322.9" rx="18" ry="18"/>
<text text-anchor="middle" x="3139.34" y="-1319.2" font-family="Times,serif" font-size="14.00">Z</text>
</g>
<!-- Orgullo y prejuicio&#45;&gt;Z -->
<g id="edge46" class="edge">
<title>Orgullo y prejuicio&#45;&gt;Z</title>
<path fill="none" stroke="black" d="M2682.32,-1616.62C2799.77,-1541.39 3039.92,-1387.58 3115.81,-1338.97"/>
<polygon fill="black" stroke="black" points="3118.09,-1341.66 3124.62,-1333.32 3114.32,-1335.77 3118.09,-1341.66"/>
<text text-anchor="middle" x="2821.34" y="-1525.38" font-family="Times,serif" font-size="14.00">R</text>
</g>
<!-- Los juegos del hambre -->
<g id="node40" class="node">
<title>Los juegos del hambre</title>
<ellipse fill="lightblue" stroke="black" cx="2564.34" cy="-870.88" rx="91.78" ry="91.78"/>
<text text-anchor="middle" x="2564.34" y="-867.18" font-family="Times,serif" font-size="14.00">Los juegos del hambre</text>
</g>
<!-- Matar a un ruiseñor&#45;&gt;Los juegos del hambre -->
<g id="edge39" class="edge">
<title>Matar a un ruiseñor&#45;&gt;Los juegos del hambre</title>
<path fill="none" stroke="black" d="M2607.11,-1241.96C2598.42,-1166.75 2585.37,-1053.85 2575.98,-972.54"/>
<polygon fill="black" stroke="black" points="2579.42,-971.82 2574.79,-962.28 2572.46,-972.62 2579.42,-971.82"/>
<text text-anchor="middle" x="2598.84" y="-1113.01" font-family="Times,serif" font-size="14.00">L</text>
</g>
<!-- Mockingjay -->
<g id="node44" class="node">
<title>Mockingjay</title>
<ellipse fill="lightblue" stroke="black" cx="2750.34" cy="-870.88" rx="53.89" ry="53.89"/>
<text text-anchor="middle" x="2750.34" y="-867.18" font-family="Times,serif" font-size="14.00">Mockingjay</text>
</g>
<!-- Matar a un ruiseñor&#45;&gt;Mockingjay -->
<g id="edge43" class="edge">
<title>Matar a un ruiseñor&#45;&gt;Mockingjay</title>
<path fill="none" stroke="black" d="M2639.3,-1244.79C2665.59,-1156.51 2708.11,-1013.71 2732.19,-932.84"/>
<polygon fill="black" stroke="black" points="2735.68,-933.39 2735.18,-922.81 2728.97,-931.4 2735.68,-933.39"/>
<text text-anchor="middle" x="2684.34" y="-1113.01" font-family="Times,serif" font-size="14.00">R</text>
</g>
<!-- Los hombres que no amaban a las mujeres -->
<g id="node41" class="node">
<title>Los hombres que no amaban a las mujeres</title>
<ellipse fill="lightblue" stroke="black" cx="2267.34" cy="-436.42" rx="163.27" ry="163.27"/>
<text text-anchor="middle" x="2267.34" y="-432.72" font-family="Times,serif" font-size="14.00">Los hombres que no amaban a las mujeres</text>
</g>
<!-- Los juegos del hambre&#45;&gt;Los hombres que no amaban a las mujeres -->
<g id="edge40" class="edge">
<title>Los juegos del hambre&#45;&gt;Los hombres que no amaban a las mujeres</title>
<path fill="none" stroke="black" d="M2532.51,-784.87C2514.97,-742.81 2491.11,-692.25 2463.34,-650.55 2442.24,-618.86 2416.47,-587.27 2390.64,-558.49"/>
<polygon fill="black" stroke="black" points="2393.03,-555.91 2383.72,-550.85 2387.84,-560.61 2393.03,-555.91"/>
<text text-anchor="middle" x="2454.84" y="-621.35" font-family="Times,serif" font-size="14.00">L</text>
</g>
<!-- Los pilares de la Tierra -->
<g id="node42" class="node">
<title>Los pilares de la Tierra</title>
<ellipse fill="lightblue" stroke="black" cx="2541.34" cy="-436.42" rx="92.88" ry="92.88"/>
<text text-anchor="middle" x="2541.34" y="-432.72" font-family="Times,serif" font-size="14.00">Los pilares de la Tierra</text>
</g>
<!-- Los juegos del hambre&#45;&gt;Los pilares de la Tierra -->
<g id="edge41" class="edge">
<title>Los juegos del hambre&#45;&gt;Los pilares de la Tierra</title>
<path fill="none" stroke="black" d="M2559.52,-779.22C2555.8,-709.2 2550.65,-612.3 2546.78,-539.55"/>
<polygon fill="black" stroke="black" points="2550.26,-539.24 2546.24,-529.44 2543.27,-539.62 2550.26,-539.24"/>
<text text-anchor="middle" x="2557.34" y="-621.35" font-family="Times,serif" font-size="14.00">R</text>
</g>
<!-- Los miserables -->
<g id="node43" class="node">
<title>Los miserables</title>
<ellipse fill="lightblue" stroke="black" cx="2541.34" cy="-111.14" rx="64.19" ry="64.19"/>
<text text-anchor="middle" x="2541.34" y="-107.44" font-family="Times,serif" font-size="14.00">Los miserables</text>
</g>
<!-- Los pilares de la Tierra&#45;&gt;Los miserables -->
<g id="edge42" class="edge">
<title>Los pilares de la Tierra&#45;&gt;Los miserables</title>
<path fill="none" stroke="black" d="M2541.34,-343.21C2541.34,-293.31 2541.34,-232.51 2541.34,-185.8"/>
<polygon fill="black" stroke="black" points="2544.84,-185.76 2541.34,-175.76 2537.84,-185.76 2544.84,-185.76"/>
<text text-anchor="middle" x="2545.84" y="-244.08" font-family="Times,serif" font-size="14.00">L</text>
</g>
<!-- Memorias de una geisha -->
<g id="node45" class="node">
<title>Memorias de una geisha</title>
<ellipse fill="lightblue" stroke="black" cx="2750.34" cy="-436.42" rx="98.28" ry="98.28"/>
<text text-anchor="middle" x="2750.34" y="-432.72" font-family="Times,serif" font-size="14.00">Memorias de una geisha</text>
</g>
<!-- Mockingjay&#45;&gt;Memorias de una geisha -->
<g id="edge44" class="edge">
<title>Mockingjay&#45;&gt;Memorias de una geisha</title>
<path fill="none" stroke="black" d="M2750.34,-816.85C2750.34,-749.49 2750.34,-631.6 2750.34,-545.05"/>
<polygon fill="black" stroke="black" points="2753.84,-544.92 2750.34,-534.92 2746.84,-544.92 2753.84,-544.92"/>
<text text-anchor="middle" x="2754.84" y="-621.35" font-family="Times,serif" font-size="14.00">L</text>
</g>
<!-- Neuromante -->
<g id="node46" class="node">
<title>Neuromante</title>
<ellipse fill="lightblue" stroke="black" cx="2921.34" cy="-436.42" rx="54.69" ry="54.69"/>
<text text-anchor="middle" x="2921.34" y="-432.72" font-family="Times,serif" font-size="14.00">Neuromante</text>
</g>
<!-- Mockingjay&#45;&gt;Neuromante -->
<g id="edge45" class="edge">
<title>Mockingjay&#45;&gt;Neuromante</title>
<path fill="none" stroke="black" d="M2769.88,-820.56C2791.34,-766.37 2826.82,-676.77 2857.34,-599.55 2870.74,-565.65 2885.71,-527.75 2897.79,-497.13"/>
<polygon fill="black" stroke="black" points="2901.19,-498.04 2901.61,-487.45 2894.68,-495.47 2901.19,-498.04"/>
<text text-anchor="middle" x="2854.34" y="-621.35" font-family="Times,serif" font-size="14.00">R</text>
</g>
<!-- Rebecca -->
<g id="node48" class="node">
<title>Rebecca</title>
<ellipse fill="lightblue" stroke="black" cx="3139.34" cy="-870.88" rx="40.09" ry="40.09"/>
<text text-anchor="middle" x="3139.34" y="-867.18" font-family="Times,serif" font-size="14.00">Rebecca</text>
</g>
<!-- Z&#45;&gt;Rebecca -->
<g id="edge47" class="edge">
<title>Z&#45;&gt;Rebecca</title>
<path fill="none" stroke="black" d="M3139.34,-1304.8C3139.34,-1241.85 3139.34,-1021.39 3139.34,-921.61"/>
<polygon fill="black" stroke="black" points="3142.84,-921.48 3139.34,-911.48 3135.84,-921.48 3142.84,-921.48"/>
<text text-anchor="middle" x="3143.84" y="-1113.01" font-family="Times,serif" font-size="14.00">L</text>
</g>
<!-- hola -->
<g id="node51" class="node">
<title>hola</title>
<ellipse fill="lightblue" stroke="black" cx="3382.34" cy="-870.88" rx="26" ry="26"/>
<text text-anchor="middle" x="3382.34" y="-867.18" font-family="Times,serif" font-size="14.00">hola</text>
</g>
<!-- Z&#45;&gt;hola -->
<g id="edge50" class="edge">
<title>Z&#45;&gt;hola</title>
<path fill="none" stroke="black" d="M3147.57,-1306.67C3182.32,-1242.3 3317.56,-991.85 3365.44,-903.2"/>
<polygon fill="black" stroke="black" points="3368.64,-904.63 3370.31,-894.17 3362.48,-901.3 3368.64,-904.63"/>
<text text-anchor="middle" x="3259.34" y="-1113.01" font-family="Times,serif" font-size="14.00">R</text>
</g>
<!-- Ready Player One -->
<g id="node49" class="node">
<title>Ready Player One</title>
<ellipse fill="lightblue" stroke="black" cx="3069.34" cy="-436.42" rx="75.29" ry="75.29"/>
<text text-anchor="middle" x="3069.34" y="-432.72" font-family="Times,serif" font-size="14.00">Ready Player One</text>
</g>
<!-- Rebecca&#45;&gt;Ready Player One -->
<g id="edge48" class="edge">
<title>Rebecca&#45;&gt;Ready Player One</title>
<path fill="none" stroke="black" d="M3133.01,-830.74C3121.74,-761.13 3097.99,-614.37 3082.89,-521.13"/>
<polygon fill="black" stroke="black" points="3086.33,-520.47 3081.28,-511.15 3079.42,-521.59 3086.33,-520.47"/>
<text text-anchor="middle" x="3104.84" y="-621.35" font-family="Times,serif" font-size="14.00">L</text>
</g>
<!-- To Kill a Mockingbird -->
<g id="node50" class="node">
<title>To Kill a Mockingbird</title>
<ellipse fill="lightblue" stroke="black" cx="3254.34" cy="-436.42" rx="91.78" ry="91.78"/>
<text text-anchor="middle" x="3254.34" y="-432.72" font-family="Times,serif" font-size="14.00">To Kill a Mockingbird</text>
</g>
<!-- Rebecca&#45;&gt;To Kill a Mockingbird -->
<g id="edge49" class="edge">
<title>Rebecca&#45;&gt;To Kill a Mockingbird</title>
<path fill="none" stroke="black" d="M3149.55,-831.5C3167.1,-765.52 3203.5,-628.63 3228.42,-534.9"/>
<polygon fill="black" stroke="black" points="3231.84,-535.68 3231.02,-525.12 3225.07,-533.88 3231.84,-535.68"/>
<text text-anchor="middle" x="3209.34" y="-621.35" font-family="Times,serif" font-size="14.00">R</text>
</g>
<!-- a -->
<g id="node52" class="node">
<title>a</title>
<ellipse fill="lightblue" stroke="black" cx="3382.34" cy="-436.42" rx="18" ry="18"/>
<text text-anchor="middle" x="3382.34" y="-432.72" font-family="Times,serif" font-size="14.00">a</text>
</g>
<!-- hola&#45;&gt;a -->
<g id="edge51" class="edge">
<title>hola&#45;&gt;a</title>
<path fill="none" stroke="black" d="M3382.34,-844.76C3382.34,-769.01 3382.34,-543.19 3382.34,-464.68"/>
<polygon fill="black" stroke="black" points="3385.84,-464.61 3382.34,-454.61 3378.84,-464.61 3385.84,-464.61"/>
<text text-anchor="middle" x="3386.84" y="-621.35" font-family="Times,serif" font-size="14.00">L</text>
</g>
<!-- z -->
<g id="node53" class="node">
<title>z</title>
<ellipse fill="lightblue" stroke="black" cx="3436.34" cy="-436.42" rx="18" ry="18"/>
<text text-anchor="middle" x="3436.34" y="-432.72" font-family="Times,serif" font-size="14.00">z</text>
</g>
<!-- hola&#45;&gt;z -->
<g id="edge52" class="edge">
<title>hola&#45;&gt;z</title>
<path fill="none" stroke="black" d="M3385.48,-844.76C3394.94,-769.01 3423.14,-543.19 3432.94,-464.68"/>
<polygon fill="black" stroke="black" points="3436.43,-464.97 3434.2,-454.61 3429.49,-464.1 3436.43,-464.97"/>
<text text-anchor="middle" x="3417.34" y="-621.35" font-family="Times,serif" font-size="14.00">R</text>
</g>
</g>
</svg>
