<?xml version="1.0" encoding="UTF-8" standalone="no"?>
<!DOCTYPE svg PUBLIC "-//W3C//DTD SVG 1.1//EN"
 "http://www.w3.org/Graphics/SVG/1.1/DTD/svg11.dtd">
<!-- Generated by graphviz version 2.43.0 (0)
 -->
<!-- Title: BTree Pages: 1 -->
<svg width="1636pt" height="191pt"
 viewBox="0.00 0.00 1636.00 191.00" xmlns="http://www.w3.org/2000/svg" xmlns:xlink="http://www.w3.org/1999/xlink">
<g id="graph0" class="graph" transform="scale(1 1) rotate(0) translate(4 187)">
<title>BTree</title>
<polygon fill="white" stroke="transparent" points="-4,4 -4,-187 1632,-187 1632,4 -4,4"/>
<!-- n0 -->
<g id="node1" class="node">
<title>n0</title>
<polygon fill="lightyellow" stroke="black" points="694,-146.5 694,-182.5 782,-182.5 782,-146.5 694,-146.5"/>
<text text-anchor="middle" x="716" y="-160.8" font-family="Times,serif" font-size="14.00">1890</text>
<polyline fill="none" stroke="black" points="738,-146.5 738,-182.5 "/>
<text text-anchor="middle" x="760" y="-160.8" font-family="Times,serif" font-size="14.00">1981</text>
</g>
<!-- n1 -->
<g id="node2" class="node">
<title>n1</title>
<polygon fill="lightyellow" stroke="black" points="232,-73.5 232,-109.5 286,-109.5 286,-73.5 232,-73.5"/>
<text text-anchor="middle" x="259" y="-87.8" font-family="Times,serif" font-size="14.00">1813</text>
</g>
<!-- n0&#45;&gt;n1 -->
<g id="edge4" class="edge">
<title>n0:f0&#45;&gt;n1</title>
<path fill="none" stroke="black" d="M693,-164.5C544.19,-164.5 370.5,-122.79 296,-102.87"/>
<polygon fill="black" stroke="black" points="296.73,-99.44 286.16,-100.21 294.9,-106.19 296.73,-99.44"/>
</g>
<!-- n5 -->
<g id="node6" class="node">
<title>n5</title>
<polygon fill="lightyellow" stroke="black" points="1318,-73.5 1318,-109.5 1406,-109.5 1406,-73.5 1318,-73.5"/>
<text text-anchor="middle" x="1340" y="-87.8" font-family="Times,serif" font-size="14.00">1954</text>
<polyline fill="none" stroke="black" points="1362,-73.5 1362,-109.5 "/>
<text text-anchor="middle" x="1384" y="-87.8" font-family="Times,serif" font-size="14.00">1960</text>
</g>
<!-- n0&#45;&gt;n5 -->
<g id="edge9" class="edge">
<title>n0:f1&#45;&gt;n5</title>
<path fill="none" stroke="black" d="M783,-164.5C977.39,-164.5 1205.71,-124.04 1307.85,-103.78"/>
<polygon fill="black" stroke="black" points="1308.8,-107.16 1317.92,-101.77 1307.43,-100.29 1308.8,-107.16"/>
</g>
<!-- n10 -->
<g id="node11" class="node">
<title>n10</title>
<polygon fill="lightyellow" stroke="black" points="672,-73.5 672,-109.5 804,-109.5 804,-73.5 672,-73.5"/>
<text text-anchor="middle" x="694" y="-87.8" font-family="Times,serif" font-size="14.00">1985</text>
<polyline fill="none" stroke="black" points="716,-73.5 716,-109.5 "/>
<text text-anchor="middle" x="738" y="-87.8" font-family="Times,serif" font-size="14.00">2005</text>
<polyline fill="none" stroke="black" points="760,-73.5 760,-109.5 "/>
<text text-anchor="middle" x="782" y="-87.8" font-family="Times,serif" font-size="14.00">2011</text>
</g>
<!-- n0&#45;&gt;n10 -->
<g id="edge14" class="edge">
<title>n0:f2&#45;&gt;n10</title>
<path fill="none" stroke="black" d="M738,-146.33C738,-138.39 738,-128.91 738,-120.13"/>
<polygon fill="black" stroke="black" points="741.5,-119.92 738,-109.92 734.5,-119.92 741.5,-119.92"/>
</g>
<!-- n2 -->
<g id="node3" class="node">
<title>n2</title>
<polygon fill="lightyellow" stroke="black" points="106,-0.5 106,-36.5 224,-36.5 224,-0.5 106,-0.5"/>
<text text-anchor="middle" x="124.5" y="-14.8" font-family="Times,serif" font-size="14.00">725</text>
<polyline fill="none" stroke="black" points="143,-0.5 143,-36.5 "/>
<text text-anchor="middle" x="161.5" y="-14.8" font-family="Times,serif" font-size="14.00">762</text>
<polyline fill="none" stroke="black" points="180,-0.5 180,-36.5 "/>
<text text-anchor="middle" x="202" y="-14.8" font-family="Times,serif" font-size="14.00">1605</text>
</g>
<!-- n1&#45;&gt;n2 -->
<g id="edge1" class="edge">
<title>n1:f0&#45;&gt;n2</title>
<path fill="none" stroke="black" d="M235.28,-73.33C223.23,-64.1 208.46,-52.79 195.57,-42.91"/>
<polygon fill="black" stroke="black" points="197.49,-39.97 187.42,-36.67 193.23,-45.53 197.49,-39.97"/>
</g>
<!-- n3 -->
<g id="node4" class="node">
<title>n3</title>
<polygon fill="lightyellow" stroke="black" points="242,-0.5 242,-36.5 462,-36.5 462,-0.5 242,-0.5"/>
<text text-anchor="middle" x="264" y="-14.8" font-family="Times,serif" font-size="14.00">1847</text>
<polyline fill="none" stroke="black" points="286,-0.5 286,-36.5 "/>
<text text-anchor="middle" x="308" y="-14.8" font-family="Times,serif" font-size="14.00">1847</text>
<polyline fill="none" stroke="black" points="330,-0.5 330,-36.5 "/>
<text text-anchor="middle" x="352" y="-14.8" font-family="Times,serif" font-size="14.00">1862</text>
<polyline fill="none" stroke="black" points="374,-0.5 374,-36.5 "/>
<text text-anchor="middle" x="396" y="-14.8" font-family="Times,serif" font-size="14.00">1869</text>
<polyline fill="none" stroke="black" points="418,-0.5 418,-36.5 "/>
<text text-anchor="middle" x="440" y="-14.8" font-family="Times,serif" font-size="14.00">1877</text>
</g>
<!-- n1&#45;&gt;n3 -->
<g id="edge2" class="edge">
<title>n1:f1&#45;&gt;n3</title>
<path fill="none" stroke="black" d="M282.47,-73.33C294.39,-64.1 309,-52.79 321.76,-42.91"/>
<polygon fill="black" stroke="black" points="324.06,-45.56 329.82,-36.67 319.77,-40.03 324.06,-45.56"/>
</g>
<!-- n4 -->
<g id="node5" class="node">
<title>n4</title>
<polygon fill="lightyellow" stroke="black" points="0,-0.5 0,-36.5 88,-36.5 88,-0.5 0,-0.5"/>
<text text-anchor="middle" x="22" y="-14.8" font-family="Times,serif" font-size="14.00">1937</text>
<polyline fill="none" stroke="black" points="44,-0.5 44,-36.5 "/>
<text text-anchor="middle" x="66" y="-14.8" font-family="Times,serif" font-size="14.00">1938</text>
</g>
<!-- n1&#45;&gt;n4 -->
<g id="edge3" class="edge">
<title>n1:f2&#45;&gt;n4</title>
<path fill="none" stroke="black" d="M232.93,-73.44C232.62,-73.29 232.31,-73.14 232,-73 178.33,-48.34 158.46,-54.07 97.85,-37.1"/>
<polygon fill="black" stroke="black" points="98.76,-33.72 88.19,-34.3 96.82,-40.45 98.76,-33.72"/>
</g>
<!-- n6 -->
<g id="node7" class="node">
<title>n6</title>
<polygon fill="lightyellow" stroke="black" points="1080,-0.5 1080,-36.5 1300,-36.5 1300,-0.5 1080,-0.5"/>
<text text-anchor="middle" x="1102" y="-14.8" font-family="Times,serif" font-size="14.00">1925</text>
<polyline fill="none" stroke="black" points="1124,-0.5 1124,-36.5 "/>
<text text-anchor="middle" x="1146" y="-14.8" font-family="Times,serif" font-size="14.00">1943</text>
<polyline fill="none" stroke="black" points="1168,-0.5 1168,-36.5 "/>
<text text-anchor="middle" x="1190" y="-14.8" font-family="Times,serif" font-size="14.00">1947</text>
<polyline fill="none" stroke="black" points="1212,-0.5 1212,-36.5 "/>
<text text-anchor="middle" x="1234" y="-14.8" font-family="Times,serif" font-size="14.00">1953</text>
<polyline fill="none" stroke="black" points="1256,-0.5 1256,-36.5 "/>
<text text-anchor="middle" x="1278" y="-14.8" font-family="Times,serif" font-size="14.00">1954</text>
</g>
<!-- n5&#45;&gt;n6 -->
<g id="edge5" class="edge">
<title>n5:f0&#45;&gt;n6</title>
<path fill="none" stroke="black" d="M1317,-91.5C1277.15,-91.5 1238.34,-64.34 1214.33,-43.38"/>
<polygon fill="black" stroke="black" points="1216.54,-40.67 1206.78,-36.56 1211.85,-45.86 1216.54,-40.67"/>
</g>
<!-- n7 -->
<g id="node8" class="node">
<title>n7</title>
<polygon fill="lightyellow" stroke="black" points="1574,-0.5 1574,-36.5 1628,-36.5 1628,-0.5 1574,-0.5"/>
<text text-anchor="middle" x="1601" y="-14.8" font-family="Times,serif" font-size="14.00">1960</text>
</g>
<!-- n5&#45;&gt;n7 -->
<g id="edge6" class="edge">
<title>n5:f1&#45;&gt;n7</title>
<path fill="none" stroke="black" d="M1407,-91.5C1464.96,-91.5 1526.91,-62.91 1564.81,-41.76"/>
<polygon fill="black" stroke="black" points="1566.96,-44.56 1573.91,-36.56 1563.49,-38.48 1566.96,-44.56"/>
</g>
<!-- n8 -->
<g id="node9" class="node">
<title>n8</title>
<polygon fill="lightyellow" stroke="black" points="1424,-0.5 1424,-36.5 1556,-36.5 1556,-0.5 1424,-0.5"/>
<text text-anchor="middle" x="1446" y="-14.8" font-family="Times,serif" font-size="14.00">1967</text>
<polyline fill="none" stroke="black" points="1468,-0.5 1468,-36.5 "/>
<text text-anchor="middle" x="1490" y="-14.8" font-family="Times,serif" font-size="14.00">1979</text>
<polyline fill="none" stroke="black" points="1512,-0.5 1512,-36.5 "/>
<text text-anchor="middle" x="1534" y="-14.8" font-family="Times,serif" font-size="14.00">1980</text>
</g>
<!-- n5&#45;&gt;n8 -->
<g id="edge7" class="edge">
<title>n5:f2&#45;&gt;n8</title>
<path fill="none" stroke="black" d="M1361.79,-73.32C1361.86,-73.22 1361.93,-73.11 1362,-73 1369.67,-61.48 1396.26,-49.52 1423.23,-39.83"/>
<polygon fill="black" stroke="black" points="1424.47,-43.11 1432.76,-36.51 1422.16,-36.5 1424.47,-43.11"/>
</g>
<!-- n9 -->
<g id="node10" class="node">
<title>n9</title>
<polygon fill="lightyellow" stroke="black" points="1318,-0.5 1318,-36.5 1406,-36.5 1406,-0.5 1318,-0.5"/>
<text text-anchor="middle" x="1340" y="-14.8" font-family="Times,serif" font-size="14.00">1985</text>
<polyline fill="none" stroke="black" points="1362,-0.5 1362,-36.5 "/>
<text text-anchor="middle" x="1384" y="-14.8" font-family="Times,serif" font-size="14.00">1988</text>
</g>
<!-- n5&#45;&gt;n9 -->
<g id="edge8" class="edge">
<title>n5:f3&#45;&gt;n9</title>
<path fill="none" stroke="black" d="M1362,-73.33C1362,-65.39 1362,-55.91 1362,-47.13"/>
<polygon fill="black" stroke="black" points="1365.5,-46.92 1362,-36.92 1358.5,-46.92 1365.5,-46.92"/>
</g>
<!-- n11 -->
<g id="node12" class="node">
<title>n11</title>
<polygon fill="lightyellow" stroke="black" points="480,-0.5 480,-36.5 568,-36.5 568,-0.5 480,-0.5"/>
<text text-anchor="middle" x="502" y="-14.8" font-family="Times,serif" font-size="14.00">1983</text>
<polyline fill="none" stroke="black" points="524,-0.5 524,-36.5 "/>
<text text-anchor="middle" x="546" y="-14.8" font-family="Times,serif" font-size="14.00">1984</text>
</g>
<!-- n10&#45;&gt;n11 -->
<g id="edge10" class="edge">
<title>n10:f0&#45;&gt;n11</title>
<path fill="none" stroke="black" d="M671,-91.5C625.93,-91.5 580.29,-63.87 552.08,-42.84"/>
<polygon fill="black" stroke="black" points="553.96,-39.88 543.9,-36.56 549.7,-45.43 553.96,-39.88"/>
</g>
<!-- n12 -->
<g id="node13" class="node">
<title>n12</title>
<polygon fill="lightyellow" stroke="black" points="736,-0.5 736,-36.5 912,-36.5 912,-0.5 736,-0.5"/>
<text text-anchor="middle" x="758" y="-14.8" font-family="Times,serif" font-size="14.00">2002</text>
<polyline fill="none" stroke="black" points="780,-0.5 780,-36.5 "/>
<text text-anchor="middle" x="802" y="-14.8" font-family="Times,serif" font-size="14.00">2003</text>
<polyline fill="none" stroke="black" points="824,-0.5 824,-36.5 "/>
<text text-anchor="middle" x="846" y="-14.8" font-family="Times,serif" font-size="14.00">2004</text>
<polyline fill="none" stroke="black" points="868,-0.5 868,-36.5 "/>
<text text-anchor="middle" x="890" y="-14.8" font-family="Times,serif" font-size="14.00">2005</text>
</g>
<!-- n10&#45;&gt;n12 -->
<g id="edge11" class="edge">
<title>n10:f1&#45;&gt;n12</title>
<path fill="none" stroke="black" d="M738,-73C738,-59.69 745.52,-49.57 756.11,-41.92"/>
<polygon fill="black" stroke="black" points="758.11,-44.81 764.74,-36.54 754.4,-38.87 758.11,-44.81"/>
</g>
<!-- n13 -->
<g id="node14" class="node">
<title>n13</title>
<polygon fill="lightyellow" stroke="black" points="930,-0.5 930,-36.5 1062,-36.5 1062,-0.5 930,-0.5"/>
<text text-anchor="middle" x="952" y="-14.8" font-family="Times,serif" font-size="14.00">2006</text>
<polyline fill="none" stroke="black" points="974,-0.5 974,-36.5 "/>
<text text-anchor="middle" x="996" y="-14.8" font-family="Times,serif" font-size="14.00">2009</text>
<polyline fill="none" stroke="black" points="1018,-0.5 1018,-36.5 "/>
<text text-anchor="middle" x="1040" y="-14.8" font-family="Times,serif" font-size="14.00">2010</text>
</g>
<!-- n10&#45;&gt;n13 -->
<g id="edge12" class="edge">
<title>n10:f2&#45;&gt;n13</title>
<path fill="none" stroke="black" d="M805,-91.5C862.17,-91.5 923.14,-62.91 960.41,-41.76"/>
<polygon fill="black" stroke="black" points="962.47,-44.61 969.36,-36.56 958.96,-38.56 962.47,-44.61"/>
</g>
<!-- n14 -->
<g id="node15" class="node">
<title>n14</title>
<polygon fill="lightyellow" stroke="black" points="586,-0.5 586,-36.5 718,-36.5 718,-0.5 586,-0.5"/>
<text text-anchor="middle" x="608" y="-14.8" font-family="Times,serif" font-size="14.00">2011</text>
<polyline fill="none" stroke="black" points="630,-0.5 630,-36.5 "/>
<text text-anchor="middle" x="652" y="-14.8" font-family="Times,serif" font-size="14.00">2020</text>
<polyline fill="none" stroke="black" points="674,-0.5 674,-36.5 "/>
<text text-anchor="middle" x="696" y="-14.8" font-family="Times,serif" font-size="14.00">2021</text>
</g>
<!-- n10&#45;&gt;n14 -->
<g id="edge13" class="edge">
<title>n10:f3&#45;&gt;n14</title>
<path fill="none" stroke="black" d="M716.46,-73.39C716.31,-73.26 716.15,-73.13 716,-73 704.3,-63.19 691.39,-52.39 680.24,-43.08"/>
<polygon fill="black" stroke="black" points="682.4,-40.32 672.48,-36.59 677.91,-45.69 682.4,-40.32"/>
</g>
</g>
</svg>
