<?xml version="1.0" encoding="UTF-8" standalone="no"?>
<!DOCTYPE svg PUBLIC "-//W3C//DTD SVG 1.1//EN"
 "http://www.w3.org/Graphics/SVG/1.1/DTD/svg11.dtd">
<!-- Generated by graphviz version 2.43.0 (0)
 -->
<!-- Title: BPlusTree Pages: 1 -->
<svg width="5016pt" height="264pt"
 viewBox="0.00 0.00 5015.50 264.00" xmlns="http://www.w3.org/2000/svg" xmlns:xlink="http://www.w3.org/1999/xlink">
<g id="graph0" class="graph" transform="scale(1 1) rotate(0) translate(4 260)">
<title>BPlusTree</title>
<polygon fill="white" stroke="transparent" points="-4,4 -4,-260 5011.5,-260 5011.5,4 -4,4"/>
<!-- n0 -->
<g id="node1" class="node">
<title>n0</title>
<polygon fill="lightskyblue" stroke="black" points="3916,-219.5 3916,-255.5 4170,-255.5 4170,-219.5 3916,-219.5"/>
<text text-anchor="middle" x="3926" y="-233.8" font-family="Times,serif" font-size="14.00"> </text>
<polyline fill="none" stroke="black" points="3936,-219.5 3936,-255.5 "/>
<text text-anchor="middle" x="3995.5" y="-233.8" font-family="Times,serif" font-size="14.00">Novela Romántica</text>
<polyline fill="none" stroke="black" points="4055,-219.5 4055,-255.5 "/>
<text text-anchor="middle" x="4065" y="-233.8" font-family="Times,serif" font-size="14.00"> </text>
<polyline fill="none" stroke="black" points="4075,-219.5 4075,-255.5 "/>
<text text-anchor="middle" x="4085" y="-233.8" font-family="Times,serif" font-size="14.00"> </text>
<polyline fill="none" stroke="black" points="4095,-219.5 4095,-255.5 "/>
<text text-anchor="middle" x="4112.5" y="-233.8" font-family="Times,serif" font-size="14.00">dsa</text>
<polyline fill="none" stroke="black" points="4130,-219.5 4130,-255.5 "/>
<text text-anchor="middle" x="4140" y="-233.8" font-family="Times,serif" font-size="14.00"> </text>
<polyline fill="none" stroke="black" points="4150,-219.5 4150,-255.5 "/>
<text text-anchor="middle" x="4160" y="-233.8" font-family="Times,serif" font-size="14.00"> </text>
</g>
<!-- n1 -->
<g id="node2" class="node">
<title>n1</title>
<polygon fill="lightskyblue" stroke="black" points="2065,-146.5 2065,-182.5 2485,-182.5 2485,-146.5 2065,-146.5"/>
<text text-anchor="middle" x="2075" y="-160.8" font-family="Times,serif" font-size="14.00"> </text>
<polyline fill="none" stroke="black" points="2085,-146.5 2085,-182.5 "/>
<text text-anchor="middle" x="2116" y="-160.8" font-family="Times,serif" font-size="14.00">Fantasía</text>
<polyline fill="none" stroke="black" points="2147,-146.5 2147,-182.5 "/>
<text text-anchor="middle" x="2157" y="-160.8" font-family="Times,serif" font-size="14.00"> </text>
<polyline fill="none" stroke="black" points="2167,-146.5 2167,-182.5 "/>
<text text-anchor="middle" x="2177" y="-160.8" font-family="Times,serif" font-size="14.00"> </text>
<polyline fill="none" stroke="black" points="2187,-146.5 2187,-182.5 "/>
<text text-anchor="middle" x="2242" y="-160.8" font-family="Times,serif" font-size="14.00">Histórica/Ficción</text>
<polyline fill="none" stroke="black" points="2297,-146.5 2297,-182.5 "/>
<text text-anchor="middle" x="2307" y="-160.8" font-family="Times,serif" font-size="14.00"> </text>
<polyline fill="none" stroke="black" points="2317,-146.5 2317,-182.5 "/>
<text text-anchor="middle" x="2327" y="-160.8" font-family="Times,serif" font-size="14.00"> </text>
<polyline fill="none" stroke="black" points="2337,-146.5 2337,-182.5 "/>
<text text-anchor="middle" x="2391" y="-160.8" font-family="Times,serif" font-size="14.00">Misterio/Thriller</text>
<polyline fill="none" stroke="black" points="2445,-146.5 2445,-182.5 "/>
<text text-anchor="middle" x="2455" y="-160.8" font-family="Times,serif" font-size="14.00"> </text>
<polyline fill="none" stroke="black" points="2465,-146.5 2465,-182.5 "/>
<text text-anchor="middle" x="2475" y="-160.8" font-family="Times,serif" font-size="14.00"> </text>
</g>
<!-- n0&#45;&gt;n1 -->
<g id="edge16" class="edge">
<title>n0:f0&#45;&gt;n1</title>
<path fill="none" stroke="black" d="M3915,-237.5C3406.46,-237.5 2810.07,-202.52 2495.37,-181.32"/>
<polygon fill="black" stroke="black" points="2495.43,-177.82 2485.22,-180.64 2494.96,-184.8 2495.43,-177.82"/>
</g>
<!-- n17 -->
<g id="node18" class="node">
<title>n17</title>
<polygon fill="lightskyblue" stroke="black" points="4010.5,-146.5 4010.5,-182.5 4159.5,-182.5 4159.5,-146.5 4010.5,-146.5"/>
<text text-anchor="middle" x="4020.5" y="-160.8" font-family="Times,serif" font-size="14.00"> </text>
<polyline fill="none" stroke="black" points="4030.5,-146.5 4030.5,-182.5 "/>
<text text-anchor="middle" x="4075" y="-160.8" font-family="Times,serif" font-size="14.00">Pogramacion</text>
<polyline fill="none" stroke="black" points="4119.5,-146.5 4119.5,-182.5 "/>
<text text-anchor="middle" x="4129.5" y="-160.8" font-family="Times,serif" font-size="14.00"> </text>
<polyline fill="none" stroke="black" points="4139.5,-146.5 4139.5,-182.5 "/>
<text text-anchor="middle" x="4149.5" y="-160.8" font-family="Times,serif" font-size="14.00"> </text>
</g>
<!-- n0&#45;&gt;n17 -->
<g id="edge24" class="edge">
<title>n0:f1&#45;&gt;n17</title>
<path fill="none" stroke="black" d="M4085,-219C4085,-210.51 4085,-201.26 4085,-192.88"/>
<polygon fill="black" stroke="black" points="4088.5,-192.85 4085,-182.85 4081.5,-192.85 4088.5,-192.85"/>
</g>
<!-- n25 -->
<g id="node26" class="node">
<title>n25</title>
<polygon fill="lightskyblue" stroke="black" points="4520,-146.5 4520,-182.5 4574,-182.5 4574,-146.5 4520,-146.5"/>
<text text-anchor="middle" x="4547" y="-160.8" font-family="Times,serif" font-size="14.00"> </text>
</g>
<!-- n0&#45;&gt;n25 -->
<g id="edge27" class="edge">
<title>n0:f2&#45;&gt;n25</title>
<path fill="none" stroke="black" d="M4171,-237.5C4297.44,-237.5 4443.59,-197.74 4510.34,-177.31"/>
<polygon fill="black" stroke="black" points="4511.46,-180.63 4519.98,-174.33 4509.39,-173.94 4511.46,-180.63"/>
</g>
<!-- n2 -->
<g id="node3" class="node">
<title>n2</title>
<polygon fill="lightskyblue" stroke="black" points="340,-73.5 340,-109.5 758,-109.5 758,-73.5 340,-73.5"/>
<text text-anchor="middle" x="350" y="-87.8" font-family="Times,serif" font-size="14.00"> </text>
<polyline fill="none" stroke="black" points="360,-73.5 360,-109.5 "/>
<text text-anchor="middle" x="443" y="-87.8" font-family="Times,serif" font-size="14.00">Ciencia Ficción/Cyberpunk</text>
<polyline fill="none" stroke="black" points="526,-73.5 526,-109.5 "/>
<text text-anchor="middle" x="536" y="-87.8" font-family="Times,serif" font-size="14.00"> </text>
<polyline fill="none" stroke="black" points="546,-73.5 546,-109.5 "/>
<text text-anchor="middle" x="556" y="-87.8" font-family="Times,serif" font-size="14.00"> </text>
<polyline fill="none" stroke="black" points="566,-73.5 566,-109.5 "/>
<text text-anchor="middle" x="642" y="-87.8" font-family="Times,serif" font-size="14.00">Distopía/Ciencia Ficción</text>
<polyline fill="none" stroke="black" points="718,-73.5 718,-109.5 "/>
<text text-anchor="middle" x="728" y="-87.8" font-family="Times,serif" font-size="14.00"> </text>
<polyline fill="none" stroke="black" points="738,-73.5 738,-109.5 "/>
<text text-anchor="middle" x="748" y="-87.8" font-family="Times,serif" font-size="14.00"> </text>
</g>
<!-- n1&#45;&gt;n2 -->
<g id="edge4" class="edge">
<title>n1:f0&#45;&gt;n2</title>
<path fill="none" stroke="black" d="M2064,-164.5C1602.58,-164.5 1062.99,-130.76 768.45,-109.48"/>
<polygon fill="black" stroke="black" points="768.3,-105.96 758.08,-108.73 767.8,-112.94 768.3,-105.96"/>
</g>
<!-- n6 -->
<g id="node7" class="node">
<title>n6</title>
<polygon fill="lightskyblue" stroke="black" points="1428.5,-73.5 1428.5,-109.5 1731.5,-109.5 1731.5,-73.5 1428.5,-73.5"/>
<text text-anchor="middle" x="1438.5" y="-87.8" font-family="Times,serif" font-size="14.00"> </text>
<polyline fill="none" stroke="black" points="1448.5,-73.5 1448.5,-109.5 "/>
<text text-anchor="middle" x="1501.5" y="-87.8" font-family="Times,serif" font-size="14.00">Ficción/Fantasía</text>
<polyline fill="none" stroke="black" points="1554.5,-73.5 1554.5,-109.5 "/>
<text text-anchor="middle" x="1564.5" y="-87.8" font-family="Times,serif" font-size="14.00"> </text>
<polyline fill="none" stroke="black" points="1574.5,-73.5 1574.5,-109.5 "/>
<text text-anchor="middle" x="1584.5" y="-87.8" font-family="Times,serif" font-size="14.00"> </text>
<polyline fill="none" stroke="black" points="1594.5,-73.5 1594.5,-109.5 "/>
<text text-anchor="middle" x="1643" y="-87.8" font-family="Times,serif" font-size="14.00">Fábula/Infantil</text>
<polyline fill="none" stroke="black" points="1691.5,-73.5 1691.5,-109.5 "/>
<text text-anchor="middle" x="1701.5" y="-87.8" font-family="Times,serif" font-size="14.00"> </text>
<polyline fill="none" stroke="black" points="1711.5,-73.5 1711.5,-109.5 "/>
<text text-anchor="middle" x="1721.5" y="-87.8" font-family="Times,serif" font-size="14.00"> </text>
</g>
<!-- n1&#45;&gt;n6 -->
<g id="edge8" class="edge">
<title>n1:f1&#45;&gt;n6</title>
<path fill="none" stroke="black" d="M2177,-146C2177,-124.1 1918.8,-107.87 1742.01,-99.32"/>
<polygon fill="black" stroke="black" points="1741.96,-95.81 1731.81,-98.83 1741.63,-102.8 1741.96,-95.81"/>
</g>
<!-- n10 -->
<g id="node11" class="node">
<title>n10</title>
<polygon fill="lightskyblue" stroke="black" points="2250,-73.5 2250,-109.5 2404,-109.5 2404,-73.5 2250,-73.5"/>
<text text-anchor="middle" x="2260" y="-87.8" font-family="Times,serif" font-size="14.00"> </text>
<polyline fill="none" stroke="black" points="2270,-73.5 2270,-109.5 "/>
<text text-anchor="middle" x="2317" y="-87.8" font-family="Times,serif" font-size="14.00">Horror/Gótico</text>
<polyline fill="none" stroke="black" points="2364,-73.5 2364,-109.5 "/>
<text text-anchor="middle" x="2374" y="-87.8" font-family="Times,serif" font-size="14.00"> </text>
<polyline fill="none" stroke="black" points="2384,-73.5 2384,-109.5 "/>
<text text-anchor="middle" x="2394" y="-87.8" font-family="Times,serif" font-size="14.00"> </text>
</g>
<!-- n1&#45;&gt;n10 -->
<g id="edge11" class="edge">
<title>n1:f2&#45;&gt;n10</title>
<path fill="none" stroke="black" d="M2327,-146C2327,-137.51 2327,-128.26 2327,-119.88"/>
<polygon fill="black" stroke="black" points="2330.5,-119.85 2327,-109.85 2323.5,-119.85 2330.5,-119.85"/>
</g>
<!-- n13 -->
<g id="node14" class="node">
<title>n13</title>
<polygon fill="lightskyblue" stroke="black" points="2893,-73.5 2893,-109.5 3197,-109.5 3197,-73.5 2893,-73.5"/>
<text text-anchor="middle" x="2903" y="-87.8" font-family="Times,serif" font-size="14.00"> </text>
<polyline fill="none" stroke="black" points="2913,-73.5 2913,-109.5 "/>
<text text-anchor="middle" x="2960.5" y="-87.8" font-family="Times,serif" font-size="14.00">Novela Gótica</text>
<polyline fill="none" stroke="black" points="3008,-73.5 3008,-109.5 "/>
<text text-anchor="middle" x="3018" y="-87.8" font-family="Times,serif" font-size="14.00"> </text>
<polyline fill="none" stroke="black" points="3028,-73.5 3028,-109.5 "/>
<text text-anchor="middle" x="3038" y="-87.8" font-family="Times,serif" font-size="14.00"> </text>
<polyline fill="none" stroke="black" points="3048,-73.5 3048,-109.5 "/>
<text text-anchor="middle" x="3102.5" y="-87.8" font-family="Times,serif" font-size="14.00">Novela Histórica</text>
<polyline fill="none" stroke="black" points="3157,-73.5 3157,-109.5 "/>
<text text-anchor="middle" x="3167" y="-87.8" font-family="Times,serif" font-size="14.00"> </text>
<polyline fill="none" stroke="black" points="3177,-73.5 3177,-109.5 "/>
<text text-anchor="middle" x="3187" y="-87.8" font-family="Times,serif" font-size="14.00"> </text>
</g>
<!-- n1&#45;&gt;n13 -->
<g id="edge15" class="edge">
<title>n1:f3&#45;&gt;n13</title>
<path fill="none" stroke="black" d="M2486,-164.5C2652.05,-164.5 2843.6,-132.86 2953.87,-111.53"/>
<polygon fill="black" stroke="black" points="2954.81,-114.91 2963.95,-109.56 2953.47,-108.04 2954.81,-114.91"/>
</g>
<!-- n3 -->
<g id="node4" class="node">
<title>n3</title>
<polygon fill="palegreen" stroke="black" points="0,-0.5 0,-36.5 262,-36.5 262,-0.5 0,-0.5"/>
<text text-anchor="middle" x="70" y="-14.8" font-family="Times,serif" font-size="14.00">Biografía/Histórica (1)</text>
<polyline fill="none" stroke="black" points="140,-0.5 140,-36.5 "/>
<text text-anchor="middle" x="201" y="-14.8" font-family="Times,serif" font-size="14.00">Ciencia Ficción (3)</text>
</g>
<!-- n2&#45;&gt;n3 -->
<g id="edge1" class="edge">
<title>n2:f0&#45;&gt;n3</title>
<path fill="none" stroke="black" d="M339,-91.5C276.96,-91.5 209.95,-62.54 169.23,-41.36"/>
<polygon fill="black" stroke="black" points="170.68,-38.16 160.21,-36.56 167.4,-44.34 170.68,-38.16"/>
</g>
<!-- n4 -->
<g id="node5" class="node">
<title>n4</title>
<polygon fill="palegreen" stroke="black" points="280,-0.5 280,-36.5 636,-36.5 636,-0.5 280,-0.5"/>
<text text-anchor="middle" x="372.5" y="-14.8" font-family="Times,serif" font-size="14.00">Ciencia Ficción/Cyberpunk (1)</text>
<polyline fill="none" stroke="black" points="465,-0.5 465,-36.5 "/>
<text text-anchor="middle" x="550.5" y="-14.8" font-family="Times,serif" font-size="14.00">Ciencia Ficción/Distopía (1)</text>
</g>
<!-- n2&#45;&gt;n4 -->
<g id="edge2" class="edge">
<title>n2:f1&#45;&gt;n4</title>
<path fill="none" stroke="black" d="M556,-73C556,-59.56 548.81,-49.48 538.33,-41.92"/>
<polygon fill="black" stroke="black" points="540.09,-38.89 529.74,-36.61 536.41,-44.84 540.09,-38.89"/>
</g>
<!-- n5 -->
<g id="node6" class="node">
<title>n5</title>
<polygon fill="palegreen" stroke="black" points="653.5,-0.5 653.5,-36.5 1036.5,-36.5 1036.5,-0.5 653.5,-0.5"/>
<text text-anchor="middle" x="739" y="-14.8" font-family="Times,serif" font-size="14.00">Distopía/Ciencia Ficción (1)</text>
<polyline fill="none" stroke="black" points="824.5,-0.5 824.5,-36.5 "/>
<text text-anchor="middle" x="890" y="-14.8" font-family="Times,serif" font-size="14.00">Distopía/Fantasía (3)</text>
<polyline fill="none" stroke="black" points="955.5,-0.5 955.5,-36.5 "/>
<text text-anchor="middle" x="996" y="-14.8" font-family="Times,serif" font-size="14.00">Fantasía (1)</text>
</g>
<!-- n2&#45;&gt;n5 -->
<g id="edge3" class="edge">
<title>n2:f2&#45;&gt;n5</title>
<path fill="none" stroke="black" d="M748,-73C748,-59.51 755.28,-49.4 765.85,-41.83"/>
<polygon fill="black" stroke="black" points="767.81,-44.73 774.51,-36.52 764.15,-38.76 767.81,-44.73"/>
</g>
<!-- n7 -->
<g id="node8" class="node">
<title>n7</title>
<polygon fill="palegreen" stroke="black" points="1055,-0.5 1055,-36.5 1261,-36.5 1261,-0.5 1055,-0.5"/>
<text text-anchor="middle" x="1095.5" y="-14.8" font-family="Times,serif" font-size="14.00">Fantasía (5)</text>
<polyline fill="none" stroke="black" points="1136,-0.5 1136,-36.5 "/>
<text text-anchor="middle" x="1198.5" y="-14.8" font-family="Times,serif" font-size="14.00">Fantasía/Infantil (1)</text>
</g>
<!-- n6&#45;&gt;n7 -->
<g id="edge5" class="edge">
<title>n6:f0&#45;&gt;n7</title>
<path fill="none" stroke="black" d="M1427,-91.5C1347.35,-91.5 1258.81,-61.68 1205.81,-40.42"/>
<polygon fill="black" stroke="black" points="1206.92,-37.1 1196.34,-36.56 1204.28,-43.58 1206.92,-37.1"/>
</g>
<!-- n8 -->
<g id="node9" class="node">
<title>n8</title>
<polygon fill="palegreen" stroke="black" points="1279.5,-0.5 1279.5,-36.5 1654.5,-36.5 1654.5,-0.5 1279.5,-0.5"/>
<text text-anchor="middle" x="1342" y="-14.8" font-family="Times,serif" font-size="14.00">Ficción/Fantasía (1)</text>
<polyline fill="none" stroke="black" points="1404.5,-0.5 1404.5,-36.5 "/>
<text text-anchor="middle" x="1471.5" y="-14.8" font-family="Times,serif" font-size="14.00">Filosófica/Ficción (1)</text>
<polyline fill="none" stroke="black" points="1538.5,-0.5 1538.5,-36.5 "/>
<text text-anchor="middle" x="1596.5" y="-14.8" font-family="Times,serif" font-size="14.00">Fábula/Infantil (1)</text>
</g>
<!-- n6&#45;&gt;n8 -->
<g id="edge6" class="edge">
<title>n6:f1&#45;&gt;n8</title>
<path fill="none" stroke="black" d="M1585,-73C1585,-59.69 1578.69,-49.67 1569,-42.14"/>
<polygon fill="black" stroke="black" points="1570.84,-39.16 1560.55,-36.62 1567,-45.02 1570.84,-39.16"/>
</g>
<!-- n9 -->
<g id="node10" class="node">
<title>n9</title>
<polygon fill="palegreen" stroke="black" points="1673,-0.5 1673,-36.5 2005,-36.5 2005,-0.5 1673,-0.5"/>
<text text-anchor="middle" x="1731" y="-14.8" font-family="Times,serif" font-size="14.00">Fábula/Infantil (1)</text>
<polyline fill="none" stroke="black" points="1789,-0.5 1789,-36.5 "/>
<text text-anchor="middle" x="1832" y="-14.8" font-family="Times,serif" font-size="14.00">Histórica (1)</text>
<polyline fill="none" stroke="black" points="1875,-0.5 1875,-36.5 "/>
<text text-anchor="middle" x="1940" y="-14.8" font-family="Times,serif" font-size="14.00">Histórica/Ficción (1)</text>
</g>
<!-- n6&#45;&gt;n9 -->
<g id="edge7" class="edge">
<title>n6:f2&#45;&gt;n9</title>
<path fill="none" stroke="black" d="M1722,-73C1722,-59.69 1728.34,-49.68 1738.06,-42.16"/>
<polygon fill="black" stroke="black" points="1740.06,-45.03 1746.53,-36.63 1736.24,-39.16 1740.06,-45.03"/>
</g>
<!-- n11 -->
<g id="node12" class="node">
<title>n11</title>
<polygon fill="palegreen" stroke="black" points="2023.5,-0.5 2023.5,-36.5 2284.5,-36.5 2284.5,-0.5 2023.5,-0.5"/>
<text text-anchor="middle" x="2088.5" y="-14.8" font-family="Times,serif" font-size="14.00">Histórica/Ficción (1)</text>
<polyline fill="none" stroke="black" points="2153.5,-0.5 2153.5,-36.5 "/>
<text text-anchor="middle" x="2219" y="-14.8" font-family="Times,serif" font-size="14.00">Histórica/Thriller (1)</text>
</g>
<!-- n10&#45;&gt;n11 -->
<g id="edge9" class="edge">
<title>n10:f0&#45;&gt;n11</title>
<path fill="none" stroke="black" d="M2260,-73C2260,-59.66 2253.23,-49.65 2243.11,-42.13"/>
<polygon fill="black" stroke="black" points="2244.67,-38.98 2234.34,-36.62 2240.95,-44.91 2244.67,-38.98"/>
</g>
<!-- n12 -->
<g id="node13" class="node">
<title>n12</title>
<polygon fill="palegreen" stroke="black" points="2302.5,-0.5 2302.5,-36.5 2697.5,-36.5 2697.5,-0.5 2302.5,-0.5"/>
<text text-anchor="middle" x="2359" y="-14.8" font-family="Times,serif" font-size="14.00">Horror/Gótico (2)</text>
<polyline fill="none" stroke="black" points="2415.5,-0.5 2415.5,-36.5 "/>
<text text-anchor="middle" x="2483.5" y="-14.8" font-family="Times,serif" font-size="14.00">Misterio/Histórica (1)</text>
<polyline fill="none" stroke="black" points="2551.5,-0.5 2551.5,-36.5 "/>
<text text-anchor="middle" x="2624.5" y="-14.8" font-family="Times,serif" font-size="14.00">Misterio/Romántica (1)</text>
</g>
<!-- n10&#45;&gt;n12 -->
<g id="edge10" class="edge">
<title>n10:f1&#45;&gt;n12</title>
<path fill="none" stroke="black" d="M2394,-73C2394,-59.66 2400.77,-49.65 2410.89,-42.13"/>
<polygon fill="black" stroke="black" points="2413.05,-44.91 2419.66,-36.62 2409.33,-38.98 2413.05,-44.91"/>
</g>
<!-- n14 -->
<g id="node15" class="node">
<title>n14</title>
<polygon fill="palegreen" stroke="black" points="2715.5,-0.5 2715.5,-36.5 2962.5,-36.5 2962.5,-0.5 2715.5,-0.5"/>
<text text-anchor="middle" x="2779.5" y="-14.8" font-family="Times,serif" font-size="14.00">Misterio/Thriller (1)</text>
<polyline fill="none" stroke="black" points="2843.5,-0.5 2843.5,-36.5 "/>
<text text-anchor="middle" x="2903" y="-14.8" font-family="Times,serif" font-size="14.00">Novela Clásica (1)</text>
</g>
<!-- n13&#45;&gt;n14 -->
<g id="edge12" class="edge">
<title>n13:f0&#45;&gt;n14</title>
<path fill="none" stroke="black" d="M2903,-73C2903,-60.54 2895.78,-50.42 2886.18,-42.46"/>
<polygon fill="black" stroke="black" points="2888.21,-39.61 2878.07,-36.55 2884.09,-45.27 2888.21,-39.61"/>
</g>
<!-- n15 -->
<g id="node16" class="node">
<title>n15</title>
<polygon fill="palegreen" stroke="black" points="2980.5,-0.5 2980.5,-36.5 3223.5,-36.5 3223.5,-0.5 2980.5,-0.5"/>
<text text-anchor="middle" x="3038" y="-14.8" font-family="Times,serif" font-size="14.00">Novela Gótica (2)</text>
<polyline fill="none" stroke="black" points="3095.5,-0.5 3095.5,-36.5 "/>
<text text-anchor="middle" x="3159.5" y="-14.8" font-family="Times,serif" font-size="14.00">Novela Histórica (2)</text>
</g>
<!-- n13&#45;&gt;n15 -->
<g id="edge13" class="edge">
<title>n13:f1&#45;&gt;n15</title>
<path fill="none" stroke="black" d="M3038,-73C3038,-60.54 3045.22,-50.42 3054.82,-42.46"/>
<polygon fill="black" stroke="black" points="3056.91,-45.27 3062.93,-36.55 3052.79,-39.61 3056.91,-45.27"/>
</g>
<!-- n16 -->
<g id="node17" class="node">
<title>n16</title>
<polygon fill="palegreen" stroke="black" points="3242,-0.5 3242,-36.5 3508,-36.5 3508,-0.5 3242,-0.5"/>
<text text-anchor="middle" x="3306" y="-14.8" font-family="Times,serif" font-size="14.00">Novela Histórica (1)</text>
<polyline fill="none" stroke="black" points="3370,-0.5 3370,-36.5 "/>
<text text-anchor="middle" x="3439" y="-14.8" font-family="Times,serif" font-size="14.00">Novela Romántica (2)</text>
</g>
<!-- n13&#45;&gt;n16 -->
<g id="edge14" class="edge">
<title>n13:f2&#45;&gt;n16</title>
<path fill="none" stroke="black" d="M3198,-91.5C3251.29,-91.5 3307.4,-63.15 3341.8,-42.03"/>
<polygon fill="black" stroke="black" points="3343.89,-44.85 3350.49,-36.56 3340.16,-38.92 3343.89,-44.85"/>
</g>
<!-- n18 -->
<g id="node19" class="node">
<title>n18</title>
<polygon fill="lightskyblue" stroke="black" points="3765,-73.5 3765,-109.5 3931,-109.5 3931,-73.5 3765,-73.5"/>
<text text-anchor="middle" x="3775" y="-87.8" font-family="Times,serif" font-size="14.00"> </text>
<polyline fill="none" stroke="black" points="3785,-73.5 3785,-109.5 "/>
<text text-anchor="middle" x="3838" y="-87.8" font-family="Times,serif" font-size="14.00">Novela histórica</text>
<polyline fill="none" stroke="black" points="3891,-73.5 3891,-109.5 "/>
<text text-anchor="middle" x="3901" y="-87.8" font-family="Times,serif" font-size="14.00"> </text>
<polyline fill="none" stroke="black" points="3911,-73.5 3911,-109.5 "/>
<text text-anchor="middle" x="3921" y="-87.8" font-family="Times,serif" font-size="14.00"> </text>
</g>
<!-- n17&#45;&gt;n18 -->
<g id="edge19" class="edge">
<title>n17:f0&#45;&gt;n18</title>
<path fill="none" stroke="black" d="M4009,-164.5C3960.02,-164.5 3909.39,-136.39 3878.3,-115.3"/>
<polygon fill="black" stroke="black" points="3880.27,-112.4 3870.06,-109.56 3876.27,-118.15 3880.27,-112.4"/>
</g>
<!-- n21 -->
<g id="node22" class="node">
<title>n21</title>
<polygon fill="lightskyblue" stroke="black" points="4227.5,-73.5 4227.5,-109.5 4548.5,-109.5 4548.5,-73.5 4227.5,-73.5"/>
<text text-anchor="middle" x="4237.5" y="-87.8" font-family="Times,serif" font-size="14.00"> </text>
<polyline fill="none" stroke="black" points="4247.5,-73.5 4247.5,-109.5 "/>
<text text-anchor="middle" x="4304" y="-87.8" font-family="Times,serif" font-size="14.00">Realismo mágico</text>
<polyline fill="none" stroke="black" points="4360.5,-73.5 4360.5,-109.5 "/>
<text text-anchor="middle" x="4370.5" y="-87.8" font-family="Times,serif" font-size="14.00"> </text>
<polyline fill="none" stroke="black" points="4380.5,-73.5 4380.5,-109.5 "/>
<text text-anchor="middle" x="4390.5" y="-87.8" font-family="Times,serif" font-size="14.00"> </text>
<polyline fill="none" stroke="black" points="4400.5,-73.5 4400.5,-109.5 "/>
<text text-anchor="middle" x="4454.5" y="-87.8" font-family="Times,serif" font-size="14.00">Thriller/Misterio</text>
<polyline fill="none" stroke="black" points="4508.5,-73.5 4508.5,-109.5 "/>
<text text-anchor="middle" x="4518.5" y="-87.8" font-family="Times,serif" font-size="14.00"> </text>
<polyline fill="none" stroke="black" points="4528.5,-73.5 4528.5,-109.5 "/>
<text text-anchor="middle" x="4538.5" y="-87.8" font-family="Times,serif" font-size="14.00"> </text>
</g>
<!-- n17&#45;&gt;n21 -->
<g id="edge23" class="edge">
<title>n17:f1&#45;&gt;n21</title>
<path fill="none" stroke="black" d="M4161,-164.5C4228.55,-164.5 4302.33,-135.17 4346.88,-113.95"/>
<polygon fill="black" stroke="black" points="4348.47,-117.08 4355.93,-109.56 4345.41,-110.78 4348.47,-117.08"/>
</g>
<!-- n19 -->
<g id="node20" class="node">
<title>n19</title>
<polygon fill="palegreen" stroke="black" points="3526,-0.5 3526,-36.5 3780,-36.5 3780,-0.5 3526,-0.5"/>
<text text-anchor="middle" x="3595" y="-14.8" font-family="Times,serif" font-size="14.00">Novela Romántica (1)</text>
<polyline fill="none" stroke="black" points="3664,-0.5 3664,-36.5 "/>
<text text-anchor="middle" x="3722" y="-14.8" font-family="Times,serif" font-size="14.00">Novela clásica (1)</text>
</g>
<!-- n18&#45;&gt;n19 -->
<g id="edge17" class="edge">
<title>n18:f0&#45;&gt;n19</title>
<path fill="none" stroke="black" d="M3764,-91.5C3728.2,-91.5 3694.85,-64.81 3674.23,-43.93"/>
<polygon fill="black" stroke="black" points="3676.66,-41.4 3667.23,-36.56 3671.58,-46.22 3676.66,-41.4"/>
</g>
<!-- n20 -->
<g id="node21" class="node">
<title>n20</title>
<polygon fill="palegreen" stroke="black" points="3798.5,-0.5 3798.5,-36.5 4043.5,-36.5 4043.5,-0.5 3798.5,-0.5"/>
<text text-anchor="middle" x="3861" y="-14.8" font-family="Times,serif" font-size="14.00">Novela histórica (1)</text>
<polyline fill="none" stroke="black" points="3923.5,-0.5 3923.5,-36.5 "/>
<text text-anchor="middle" x="3983.5" y="-14.8" font-family="Times,serif" font-size="14.00">Novela/Thriller (1)</text>
</g>
<!-- n18&#45;&gt;n20 -->
<g id="edge18" class="edge">
<title>n18:f1&#45;&gt;n20</title>
<path fill="none" stroke="black" d="M3921,-73C3921,-64.51 3921,-55.26 3921,-46.88"/>
<polygon fill="black" stroke="black" points="3924.5,-46.85 3921,-36.85 3917.5,-46.85 3924.5,-46.85"/>
</g>
<!-- n22 -->
<g id="node23" class="node">
<title>n22</title>
<polygon fill="palegreen" stroke="black" points="4062,-0.5 4062,-36.5 4302,-36.5 4302,-0.5 4062,-0.5"/>
<text text-anchor="middle" x="4116" y="-14.8" font-family="Times,serif" font-size="14.00">Pogramacion (1)</text>
<polyline fill="none" stroke="black" points="4170,-0.5 4170,-36.5 "/>
<text text-anchor="middle" x="4236" y="-14.8" font-family="Times,serif" font-size="14.00">Realismo mágico (1)</text>
</g>
<!-- n21&#45;&gt;n22 -->
<g id="edge20" class="edge">
<title>n21:f0&#45;&gt;n22</title>
<path fill="none" stroke="black" d="M4237,-73C4237,-61.25 4230.48,-51.25 4221.92,-43.19"/>
<polygon fill="black" stroke="black" points="4223.92,-40.3 4213.99,-36.6 4219.45,-45.69 4223.92,-40.3"/>
</g>
<!-- n23 -->
<g id="node24" class="node">
<title>n23</title>
<polygon fill="palegreen" stroke="black" points="4320,-0.5 4320,-36.5 4574,-36.5 4574,-0.5 4320,-0.5"/>
<text text-anchor="middle" x="4386" y="-14.8" font-family="Times,serif" font-size="14.00">Realismo mágico (1)</text>
<polyline fill="none" stroke="black" points="4452,-0.5 4452,-36.5 "/>
<text text-anchor="middle" x="4513" y="-14.8" font-family="Times,serif" font-size="14.00">Thriller/Crimen (2)</text>
</g>
<!-- n21&#45;&gt;n23 -->
<g id="edge21" class="edge">
<title>n21:f1&#45;&gt;n23</title>
<path fill="none" stroke="black" d="M4391,-73C4391,-61.25 4397.53,-51.29 4406.12,-43.26"/>
<polygon fill="black" stroke="black" points="4408.59,-45.76 4414.1,-36.71 4404.15,-40.35 4408.59,-45.76"/>
</g>
<!-- n24 -->
<g id="node25" class="node">
<title>n24</title>
<polygon fill="palegreen" stroke="black" points="4592,-0.5 4592,-36.5 4774,-36.5 4774,-0.5 4592,-0.5"/>
<text text-anchor="middle" x="4656" y="-14.8" font-family="Times,serif" font-size="14.00">Thriller/Misterio (1)</text>
<polyline fill="none" stroke="black" points="4720,-0.5 4720,-36.5 "/>
<text text-anchor="middle" x="4747" y="-14.8" font-family="Times,serif" font-size="14.00">ads (1)</text>
</g>
<!-- n21&#45;&gt;n24 -->
<g id="edge22" class="edge">
<title>n21:f2&#45;&gt;n24</title>
<path fill="none" stroke="black" d="M4550,-91.5C4591.46,-91.5 4632.38,-64.1 4657.65,-43.11"/>
<polygon fill="black" stroke="black" points="4659.97,-45.73 4665.28,-36.56 4655.41,-40.42 4659.97,-45.73"/>
</g>
<!-- n26 -->
<g id="node27" class="node">
<title>n26</title>
<polygon fill="lightskyblue" stroke="black" points="4747,-73.5 4747,-109.5 4801,-109.5 4801,-73.5 4747,-73.5"/>
<text text-anchor="middle" x="4774" y="-87.8" font-family="Times,serif" font-size="14.00"> </text>
</g>
<!-- n25&#45;&gt;n26 -->
<g id="edge26" class="edge">
<title>n25:f0&#45;&gt;n26</title>
<path fill="none" stroke="black" d="M4573.07,-146.44C4573.38,-146.29 4573.69,-146.14 4574,-146 4628.04,-121.15 4695.78,-106.07 4736.93,-98.52"/>
<polygon fill="black" stroke="black" points="4737.57,-101.96 4746.8,-96.76 4736.34,-95.07 4737.57,-101.96"/>
</g>
<!-- n27 -->
<g id="node28" class="node">
<title>n27</title>
<polygon fill="palegreen" stroke="black" points="4792.5,-0.5 4792.5,-36.5 5007.5,-36.5 5007.5,-0.5 4792.5,-0.5"/>
<text text-anchor="middle" x="4819.5" y="-14.8" font-family="Times,serif" font-size="14.00">dsa (1)</text>
<polyline fill="none" stroke="black" points="4846.5,-0.5 4846.5,-36.5 "/>
<text text-anchor="middle" x="4873.5" y="-14.8" font-family="Times,serif" font-size="14.00">sad (1)</text>
<polyline fill="none" stroke="black" points="4900.5,-0.5 4900.5,-36.5 "/>
<text text-anchor="middle" x="4954" y="-14.8" font-family="Times,serif" font-size="14.00">Épica clásica (2)</text>
</g>
<!-- n26&#45;&gt;n27 -->
<g id="edge25" class="edge">
<title>n26:f0&#45;&gt;n27</title>
<path fill="none" stroke="black" d="M4800.42,-73.36C4800.61,-73.24 4800.81,-73.12 4801,-73 4819.03,-61.99 4839.5,-50.74 4857.12,-41.41"/>
<polygon fill="black" stroke="black" points="4858.83,-44.46 4866.05,-36.72 4855.57,-38.27 4858.83,-44.46"/>
</g>
</g>
</svg>
